<svg width="40" height="40" viewBox="0 0 40 40" fill="none" xmlns="http://www.w3.org/2000/svg">
<circle cx="20" cy="20" r="20" fill="#EA3A3D"/>
<path fill-rule="evenodd" clip-rule="evenodd" d="M23.5365 25.8901L19.9998 22.355L16.4648 25.8901C15.811 26.5233 14.7703 26.5151 14.1268 25.8714C13.4833 25.2277 13.475 24.1877 14.1081 23.5334L17.6431 19.9982L14.1081 16.4631C13.475 15.8088 13.4833 14.7687 14.1268 14.125C14.7703 13.4813 15.811 13.4731 16.4648 14.1063L19.9998 17.6414L23.5348 14.1063C24.1886 13.4731 25.2293 13.4813 25.8728 14.125C26.5163 14.7687 26.5246 15.8088 25.8915 16.4631L22.3582 19.9998L25.8932 23.535C26.3711 24.0119 26.5143 24.7297 26.2558 25.353C25.9973 25.9764 25.3882 26.3825 24.7131 26.3817C24.2709 26.3817 23.8472 26.2043 23.5365 25.8901Z" fill="white"/>
</svg>
