<svg width="52" height="57" viewBox="0 0 52 57" fill="none" xmlns="http://www.w3.org/2000/svg">
<g clip-path="url(#clip0_16_1642)">
<path d="M1.84158 57C0.82613 57 0 56.1886 0 55.1913V1.80875C0 0.811401 0.82613 0 1.84158 0H25.9977C26.2713 0 26.4941 0.0480435 26.7423 0.160145L26.7804 0.177049C26.8157 0.20285 26.8501 0.227762 26.8855 0.250004L26.9144 0.268687C27.1065 0.386127 27.2695 0.511574 27.4009 0.63969L27.4534 0.691292L42.4932 18.4175C42.5049 18.4389 42.5258 18.4798 42.5412 18.511C42.5774 18.5848 42.6236 18.6764 42.6834 18.7743L42.7142 18.825L42.7504 18.8731C42.7694 18.898 42.793 18.9398 42.8184 18.9896C42.8999 19.2218 42.937 19.4185 42.937 19.6026V24.8812C42.937 25.8785 42.1109 26.6899 41.0954 26.6899C40.08 26.6899 39.2539 25.8785 39.2539 24.8812V21.4114H25.9986C24.9832 21.4114 24.1571 20.6 24.1571 19.6026V3.61838H3.68407V53.3816H39.253V50.5328C39.253 49.5355 40.0791 48.7241 41.0945 48.7241C42.11 48.7241 42.9361 49.5355 42.9361 50.5328V55.1913C42.9361 56.1886 42.11 57 41.0945 57H1.84158ZM27.8393 17.7939H37.1804L27.8393 6.80438V17.7939Z" fill="#767D89"/>
<path d="M10.9002 21.4122C9.88472 21.4122 9.05859 20.6008 9.05859 19.6034C9.05859 18.6061 9.88472 17.7947 10.9002 17.7947H16.9394C17.9549 17.7947 18.781 18.6061 18.781 19.6034C18.781 20.6008 17.9549 21.4122 16.9394 21.4122H10.9002Z" fill="#767D89"/>
<path d="M10.9002 30.3091C9.88472 30.3091 9.05859 29.4977 9.05859 28.5004C9.05859 27.503 9.88472 26.6917 10.9002 26.6917H29.0171C30.0325 26.6917 30.8586 27.503 30.8586 28.5004C30.8586 29.4977 30.0325 30.3091 29.0171 30.3091H10.9002Z" fill="#767D89"/>
<path d="M10.9002 39.2061C9.88472 39.2061 9.05859 38.3947 9.05859 37.3974C9.05859 36.4 9.88472 35.5886 10.9002 35.5886H22.9787C23.9942 35.5886 24.8203 36.4 24.8203 37.3974C24.8203 38.3947 23.9942 39.2061 22.9787 39.2061H10.9002Z" fill="#767D89"/>
<path d="M29.0171 44.4846C30.0325 44.4846 30.8586 45.296 30.8586 46.2934C30.8586 47.2907 30.0325 48.1021 29.0171 48.1021H10.9002C9.88472 48.1021 9.05859 47.2907 9.05859 46.2934C9.05859 45.296 9.88472 44.4846 10.9002 44.4846" fill="#767D89"/>
<path d="M50.1541 48.103C49.6704 48.103 49.2157 47.9179 48.8733 47.5816L46.1684 44.925V43.554L44.4754 44.3645C43.4183 44.8699 42.2497 45.1377 41.0957 45.1377C36.7504 45.1377 33.2148 41.6652 33.2148 37.3973C33.2148 33.1295 36.7504 29.657 41.0957 29.657C45.441 29.657 48.9765 33.1295 48.9765 37.3973C48.9765 38.5148 48.7111 39.6705 48.2093 40.7381L47.8669 41.4668L51.4613 45.0318C52.1769 45.7346 52.1805 46.869 51.4758 47.571C51.098 47.9188 50.6415 48.1021 50.1541 48.1021V48.103ZM41.0957 33.2745C38.7813 33.2745 36.8989 35.1241 36.8989 37.3964C36.8989 39.6687 38.7822 41.5184 41.0957 41.5184C43.4092 41.5184 45.2925 39.6687 45.2925 37.3964C45.2925 35.1241 43.4092 33.2745 41.0957 33.2745Z" fill="#767D89"/>
</g>
<defs>
<clipPath id="clip0_16_1642">
<rect width="52" height="57" fill="white"/>
</clipPath>
</defs>
</svg>
