<svg width="141" height="77" viewBox="0 0 141 77" fill="none" xmlns="http://www.w3.org/2000/svg">
<path d="M27.7331 1.48899e-05H112.907C113.759 1.48899e-05 114.533 0.347615 115.093 0.907164C115.655 1.47093 116 2.24741 116 3.09294V68.7581C116 69.6036 115.651 70.3764 115.089 70.9401C114.529 71.4997 113.759 71.851 112.907 71.851H27.7331C26.8808 71.851 26.107 71.5037 25.5472 70.9439C24.9876 70.3843 24.6401 69.6105 24.6401 68.7581V3.09293C24.6401 2.24037 24.9876 1.4667 25.5472 0.907078C26.1109 0.345071 26.8873 1.48899e-05 27.7331 1.48899e-05ZM112.193 3.80677H28.4468V68.0443H112.193V3.80677Z" fill="#737C8A"/>
<path d="M33.0774 57.4198C32.3342 58.163 32.3342 59.3681 33.0774 60.1113C33.8206 60.8544 35.0257 60.8544 35.7689 60.1113L59.1664 36.7137L76.8539 54.4012C77.5971 55.1444 78.8022 55.1444 79.5454 54.4012C80.2886 53.6581 80.2886 52.453 79.5454 51.7098L60.5228 32.6872C59.7795 31.9439 58.5638 31.9331 57.8205 32.6763L33.0774 57.4198Z" fill="#737C8A"/>
<path d="M68.2888 43.1447C67.5456 43.8879 67.5456 45.0929 68.2888 45.8361C69.032 46.5793 70.2371 46.5793 70.9803 45.8361L87.1833 29.6331L104.871 47.3207C105.614 48.0639 106.819 48.0639 107.562 47.3207C108.305 46.5775 108.305 45.3724 107.562 44.6292L88.5396 25.6066C87.7964 24.8633 86.5806 24.8525 85.8374 25.5958L68.2888 43.1447Z" fill="#737C8A"/>
<path d="M47.7466 11.1821C50.3744 11.1821 52.7536 12.2474 54.4757 13.9697C56.198 15.6918 57.2633 18.071 57.2633 20.6988C57.2633 23.3265 56.198 25.7058 54.4757 27.4279C52.7536 29.1502 50.3744 30.2154 47.7466 30.2154C45.1188 30.2154 42.7397 29.1502 41.0175 27.4279C39.2953 25.7058 38.23 23.3265 38.23 20.6988C38.23 18.071 39.2953 15.6918 41.0175 13.9697C42.7397 12.2474 45.1188 11.1821 47.7466 11.1821ZM51.7843 16.6611C50.7512 15.628 49.3236 14.9889 47.7466 14.9889C46.1696 14.9889 44.7421 15.628 43.709 16.6611C42.6759 17.6942 42.0367 19.1218 42.0367 20.6988C42.0367 22.2757 42.6759 23.7034 43.709 24.7365C44.7421 25.7696 46.1696 26.4087 47.7466 26.4087C49.3236 26.4087 50.7512 25.7696 51.7843 24.7365C52.8174 23.7034 53.4566 22.2757 53.4566 20.6988C53.4566 19.1218 52.8174 17.6942 51.7843 16.6611Z" fill="#737C8A"/>
<!-- <path d="M11.7246 104.559V118.778H9.27344L2.89648 108.592V118.778H0.445312V104.559H2.89648L9.29297 114.764V104.559H11.7246Z" fill="#4B525D"/>
<path d="M13.9609 113.612V113.387C13.9609 112.625 14.0716 111.919 14.293 111.268C14.5143 110.61 14.8333 110.041 15.25 109.559C15.6732 109.071 16.1875 108.693 16.793 108.426C17.4049 108.153 18.0951 108.016 18.8633 108.016C19.638 108.016 20.3281 108.153 20.9336 108.426C21.5456 108.693 22.0632 109.071 22.4863 109.559C22.9095 110.041 23.2318 110.61 23.4531 111.268C23.6745 111.919 23.7852 112.625 23.7852 113.387V113.612C23.7852 114.373 23.6745 115.08 23.4531 115.731C23.2318 116.382 22.9095 116.951 22.4863 117.44C22.0632 117.921 21.5488 118.299 20.9434 118.573C20.3379 118.839 19.651 118.973 18.8828 118.973C18.1081 118.973 17.4147 118.839 16.8027 118.573C16.1973 118.299 15.6829 117.921 15.2598 117.44C14.8366 116.951 14.5143 116.382 14.293 115.731C14.0716 115.08 13.9609 114.373 13.9609 113.612ZM16.3145 113.387V113.612C16.3145 114.087 16.3633 114.536 16.4609 114.959C16.5586 115.382 16.7116 115.753 16.9199 116.073C17.1283 116.392 17.3952 116.642 17.7207 116.824C18.0462 117.007 18.4336 117.098 18.8828 117.098C19.319 117.098 19.6966 117.007 20.0156 116.824C20.3411 116.642 20.6081 116.392 20.8164 116.073C21.0247 115.753 21.1777 115.382 21.2754 114.959C21.3796 114.536 21.4316 114.087 21.4316 113.612V113.387C21.4316 112.918 21.3796 112.476 21.2754 112.059C21.1777 111.636 21.0215 111.261 20.8066 110.936C20.5983 110.61 20.3314 110.356 20.0059 110.174C19.6868 109.985 19.306 109.891 18.8633 109.891C18.4206 109.891 18.0365 109.985 17.7109 110.174C17.3919 110.356 17.1283 110.61 16.9199 110.936C16.7116 111.261 16.5586 111.636 16.4609 112.059C16.3633 112.476 16.3145 112.918 16.3145 113.387Z" fill="#4B525D"/> -->
<!-- <path d="M33.2578 108.211V118.778H30.8945V108.211H33.2578ZM30.7383 105.438C30.7383 105.08 30.8555 104.783 31.0898 104.549C31.3307 104.308 31.6628 104.188 32.0859 104.188C32.5026 104.188 32.8314 104.308 33.0723 104.549C33.3132 104.783 33.4336 105.08 33.4336 105.438C33.4336 105.789 33.3132 106.082 33.0723 106.317C32.8314 106.551 32.5026 106.668 32.0859 106.668C31.6628 106.668 31.3307 106.551 31.0898 106.317C30.8555 106.082 30.7383 105.789 30.7383 105.438Z" fill="#4B525D"/>
<path d="M38.1895 110.36V118.778H35.8359V108.211H38.0527L38.1895 110.36ZM37.8086 113.104L37.0078 113.094C37.0078 112.365 37.099 111.691 37.2812 111.073C37.4635 110.454 37.7305 109.917 38.082 109.461C38.4336 108.999 38.8698 108.644 39.3906 108.397C39.918 108.143 40.5267 108.016 41.2168 108.016C41.6986 108.016 42.138 108.087 42.5352 108.231C42.9388 108.367 43.2871 108.586 43.5801 108.885C43.8796 109.184 44.1074 109.569 44.2637 110.037C44.4264 110.506 44.5078 111.073 44.5078 111.737V118.778H42.1543V111.942C42.1543 111.427 42.0762 111.024 41.9199 110.731C41.7702 110.438 41.5521 110.229 41.2656 110.106C40.9857 109.976 40.6504 109.91 40.2598 109.91C39.8171 109.91 39.4395 109.995 39.127 110.164C38.821 110.334 38.5703 110.565 38.375 110.858C38.1797 111.151 38.0365 111.489 37.9453 111.873C37.8542 112.257 37.8086 112.668 37.8086 113.104ZM44.3613 112.479L43.2578 112.723C43.2578 112.085 43.3457 111.483 43.5215 110.916C43.7038 110.343 43.9674 109.842 44.3125 109.412C44.6641 108.976 45.097 108.634 45.6113 108.387C46.1257 108.14 46.7148 108.016 47.3789 108.016C47.9193 108.016 48.401 108.091 48.8242 108.24C49.2539 108.384 49.6185 108.612 49.918 108.924C50.2174 109.237 50.4453 109.643 50.6016 110.145C50.7578 110.64 50.8359 111.239 50.8359 111.942V118.778H48.4727V111.932C48.4727 111.398 48.3945 110.985 48.2383 110.692C48.0885 110.399 47.8737 110.197 47.5938 110.086C47.3138 109.969 46.9785 109.91 46.5879 109.91C46.2233 109.91 45.901 109.979 45.6211 110.115C45.3477 110.246 45.1165 110.431 44.9277 110.672C44.7389 110.906 44.5957 111.177 44.498 111.483C44.4069 111.789 44.3613 112.121 44.3613 112.479Z" fill="#4B525D"/>
<path d="M59.2148 116.658V111.619C59.2148 111.242 59.1465 110.916 59.0098 110.643C58.873 110.369 58.6647 110.158 58.3848 110.008C58.1113 109.858 57.7663 109.783 57.3496 109.783C56.9655 109.783 56.6335 109.849 56.3535 109.979C56.0736 110.109 55.8555 110.285 55.6992 110.506C55.543 110.727 55.4648 110.978 55.4648 111.258H53.1211C53.1211 110.841 53.222 110.438 53.4238 110.047C53.6257 109.656 53.9186 109.308 54.3027 109.002C54.6868 108.696 55.1458 108.455 55.6797 108.28C56.2135 108.104 56.8125 108.016 57.4766 108.016C58.2708 108.016 58.974 108.149 59.5859 108.416C60.2044 108.683 60.6895 109.087 61.041 109.627C61.3991 110.161 61.5781 110.832 61.5781 111.639V116.336C61.5781 116.818 61.6107 117.251 61.6758 117.635C61.7474 118.013 61.8483 118.341 61.9785 118.621V118.778H59.5664C59.4557 118.524 59.3678 118.201 59.3027 117.811C59.2441 117.414 59.2148 117.03 59.2148 116.658ZM59.5566 112.352L59.5762 113.807H57.8867C57.4505 113.807 57.0664 113.849 56.7344 113.934C56.4023 114.012 56.1257 114.129 55.9043 114.285C55.6829 114.442 55.5169 114.63 55.4062 114.852C55.2956 115.073 55.2402 115.324 55.2402 115.604C55.2402 115.884 55.3053 116.141 55.4355 116.375C55.5658 116.603 55.7546 116.782 56.002 116.912C56.2559 117.043 56.5618 117.108 56.9199 117.108C57.4017 117.108 57.8216 117.01 58.1797 116.815C58.5443 116.613 58.8307 116.369 59.0391 116.082C59.2474 115.789 59.3581 115.513 59.3711 115.252L60.1328 116.297C60.0547 116.564 59.9212 116.851 59.7324 117.156C59.5436 117.462 59.2962 117.755 58.9902 118.035C58.6908 118.309 58.3294 118.533 57.9062 118.709C57.4896 118.885 57.0078 118.973 56.4609 118.973C55.7708 118.973 55.1556 118.836 54.6152 118.563C54.0749 118.283 53.6517 117.908 53.3457 117.44C53.0397 116.964 52.8867 116.427 52.8867 115.828C52.8867 115.268 52.9909 114.774 53.1992 114.344C53.4141 113.908 53.7266 113.543 54.1367 113.25C54.5534 112.957 55.0612 112.736 55.6602 112.586C56.2591 112.43 56.9427 112.352 57.7109 112.352H59.5566Z" fill="#4B525D"/> -->
<!-- <path d="M70.8066 108.211H72.9453V118.485C72.9453 119.435 72.7435 120.242 72.3398 120.906C71.9362 121.571 71.373 122.075 70.6504 122.42C69.9277 122.772 69.0911 122.948 68.1406 122.948C67.737 122.948 67.2878 122.889 66.793 122.772C66.3047 122.655 65.8294 122.466 65.3672 122.205C64.9115 121.951 64.5306 121.616 64.2246 121.199L65.3281 119.813C65.7057 120.262 66.1224 120.591 66.5781 120.799C67.0339 121.007 67.5124 121.112 68.0137 121.112C68.554 121.112 69.013 121.011 69.3906 120.809C69.7747 120.614 70.071 120.324 70.2793 119.94C70.4876 119.556 70.5918 119.087 70.5918 118.533V110.604L70.8066 108.211ZM63.6289 113.612V113.406C63.6289 112.606 63.7266 111.877 63.9219 111.219C64.1172 110.555 64.3971 109.985 64.7617 109.51C65.1263 109.028 65.569 108.66 66.0898 108.406C66.6107 108.146 67.1999 108.016 67.8574 108.016C68.541 108.016 69.1237 108.14 69.6055 108.387C70.0938 108.634 70.5007 108.989 70.8262 109.451C71.1517 109.907 71.4056 110.454 71.5879 111.092C71.7767 111.724 71.9167 112.427 72.0078 113.201V113.856C71.9232 114.611 71.7799 115.301 71.5781 115.926C71.3763 116.551 71.1094 117.091 70.7773 117.547C70.4453 118.003 70.0352 118.354 69.5469 118.602C69.0651 118.849 68.4954 118.973 67.8379 118.973C67.1934 118.973 66.6107 118.839 66.0898 118.573C65.5755 118.306 65.1328 117.931 64.7617 117.449C64.3971 116.968 64.1172 116.401 63.9219 115.75C63.7266 115.093 63.6289 114.38 63.6289 113.612ZM65.9824 113.406V113.612C65.9824 114.093 66.028 114.543 66.1191 114.959C66.2168 115.376 66.3633 115.744 66.5586 116.063C66.7604 116.375 67.0143 116.623 67.3203 116.805C67.6328 116.981 68.0007 117.069 68.4238 117.069C68.9772 117.069 69.4297 116.951 69.7812 116.717C70.1393 116.483 70.4128 116.167 70.6016 115.77C70.7969 115.366 70.9336 114.917 71.0117 114.422V112.655C70.9727 112.27 70.8913 111.912 70.7676 111.58C70.6504 111.248 70.4909 110.959 70.2891 110.711C70.0872 110.457 69.8333 110.262 69.5273 110.125C69.2214 109.982 68.86 109.91 68.4434 109.91C68.0202 109.91 67.6523 110.002 67.3398 110.184C67.0273 110.366 66.7702 110.617 66.5684 110.936C66.373 111.255 66.2266 111.626 66.1289 112.049C66.0312 112.472 65.9824 112.925 65.9824 113.406Z" fill="#4B525D"/>
<path d="M80.0449 118.973C79.2637 118.973 78.5573 118.846 77.9258 118.592C77.3008 118.332 76.7669 117.97 76.3242 117.508C75.888 117.046 75.5527 116.502 75.3184 115.877C75.084 115.252 74.9668 114.578 74.9668 113.856V113.465C74.9668 112.638 75.0872 111.89 75.3281 111.219C75.569 110.548 75.9043 109.976 76.334 109.5C76.7637 109.018 77.2715 108.651 77.8574 108.397C78.4434 108.143 79.0781 108.016 79.7617 108.016C80.5169 108.016 81.1777 108.143 81.7441 108.397C82.3105 108.651 82.7793 109.009 83.1504 109.471C83.528 109.927 83.8079 110.47 83.9902 111.102C84.179 111.733 84.2734 112.43 84.2734 113.192V114.198H76.1094V112.508H81.9492V112.323C81.9362 111.899 81.8516 111.502 81.6953 111.131C81.5456 110.76 81.3145 110.461 81.002 110.233C80.6895 110.005 80.2728 109.891 79.752 109.891C79.3613 109.891 79.013 109.976 78.707 110.145C78.4076 110.308 78.1569 110.545 77.9551 110.858C77.7533 111.17 77.597 111.548 77.4863 111.99C77.3822 112.427 77.3301 112.918 77.3301 113.465V113.856C77.3301 114.318 77.3919 114.748 77.5156 115.145C77.6458 115.535 77.8346 115.877 78.082 116.17C78.3294 116.463 78.6289 116.694 78.9805 116.864C79.332 117.026 79.7324 117.108 80.1816 117.108C80.748 117.108 81.2526 116.994 81.6953 116.766C82.138 116.538 82.5221 116.216 82.8477 115.799L84.0879 117C83.86 117.332 83.5638 117.651 83.1992 117.957C82.8346 118.257 82.3887 118.501 81.8613 118.69C81.3405 118.878 80.735 118.973 80.0449 118.973Z" fill="#4B525D"/>
<path d="M94.2734 118.778H91.9199V107.196C91.9199 106.408 92.0664 105.747 92.3594 105.213C92.6589 104.673 93.0853 104.266 93.6387 103.992C94.1921 103.712 94.8464 103.573 95.6016 103.573C95.8359 103.573 96.0671 103.589 96.2949 103.621C96.5228 103.647 96.7441 103.69 96.959 103.748L96.9004 105.565C96.7702 105.532 96.627 105.509 96.4707 105.496C96.321 105.483 96.1582 105.477 95.9824 105.477C95.6243 105.477 95.3151 105.545 95.0547 105.682C94.8008 105.812 94.6055 106.004 94.4688 106.258C94.3385 106.512 94.2734 106.824 94.2734 107.196V118.778ZM96.4512 108.211V109.93H90.2988V108.211H96.4512Z" fill="#4B525D"/>
<path d="M97.7109 113.612V113.387C97.7109 112.625 97.8216 111.919 98.043 111.268C98.2643 110.61 98.5833 110.041 99 109.559C99.4232 109.071 99.9375 108.693 100.543 108.426C101.155 108.153 101.845 108.016 102.613 108.016C103.388 108.016 104.078 108.153 104.684 108.426C105.296 108.693 105.813 109.071 106.236 109.559C106.66 110.041 106.982 110.61 107.203 111.268C107.424 111.919 107.535 112.625 107.535 113.387V113.612C107.535 114.373 107.424 115.08 107.203 115.731C106.982 116.382 106.66 116.951 106.236 117.44C105.813 117.921 105.299 118.299 104.693 118.573C104.088 118.839 103.401 118.973 102.633 118.973C101.858 118.973 101.165 118.839 100.553 118.573C99.9473 118.299 99.4329 117.921 99.0098 117.44C98.5866 116.951 98.2643 116.382 98.043 115.731C97.8216 115.08 97.7109 114.373 97.7109 113.612ZM100.064 113.387V113.612C100.064 114.087 100.113 114.536 100.211 114.959C100.309 115.382 100.462 115.753 100.67 116.073C100.878 116.392 101.145 116.642 101.471 116.824C101.796 117.007 102.184 117.098 102.633 117.098C103.069 117.098 103.447 117.007 103.766 116.824C104.091 116.642 104.358 116.392 104.566 116.073C104.775 115.753 104.928 115.382 105.025 114.959C105.13 114.536 105.182 114.087 105.182 113.612V113.387C105.182 112.918 105.13 112.476 105.025 112.059C104.928 111.636 104.771 111.261 104.557 110.936C104.348 110.61 104.081 110.356 103.756 110.174C103.437 109.985 103.056 109.891 102.613 109.891C102.171 109.891 101.786 109.985 101.461 110.174C101.142 110.356 100.878 110.61 100.67 110.936C100.462 111.261 100.309 111.636 100.211 112.059C100.113 112.476 100.064 112.918 100.064 113.387Z" fill="#4B525D"/> -->
<!-- <path d="M115.865 116.287V108.211H118.229V118.778H116.002L115.865 116.287ZM116.197 114.09L116.988 114.071C116.988 114.78 116.91 115.434 116.754 116.033C116.598 116.626 116.357 117.143 116.031 117.586C115.706 118.022 115.289 118.364 114.781 118.612C114.273 118.852 113.665 118.973 112.955 118.973C112.441 118.973 111.969 118.898 111.539 118.748C111.109 118.599 110.738 118.367 110.426 118.055C110.12 117.742 109.882 117.336 109.713 116.834C109.544 116.333 109.459 115.734 109.459 115.037V108.211H111.812V115.057C111.812 115.441 111.858 115.763 111.949 116.024C112.04 116.278 112.164 116.483 112.32 116.639C112.477 116.795 112.659 116.906 112.867 116.971C113.076 117.036 113.297 117.069 113.531 117.069C114.202 117.069 114.729 116.938 115.113 116.678C115.504 116.411 115.781 116.053 115.943 115.604C116.113 115.155 116.197 114.65 116.197 114.09Z" fill="#4B525D"/>
<path d="M122.975 110.467V118.778H120.621V108.211H122.838L122.975 110.467ZM122.555 113.104L121.793 113.094C121.799 112.345 121.904 111.658 122.105 111.033C122.314 110.408 122.6 109.871 122.965 109.422C123.336 108.973 123.779 108.628 124.293 108.387C124.807 108.14 125.38 108.016 126.012 108.016C126.52 108.016 126.979 108.087 127.389 108.231C127.805 108.367 128.16 108.592 128.453 108.905C128.753 109.217 128.98 109.624 129.137 110.125C129.293 110.62 129.371 111.229 129.371 111.951V118.778H127.008V111.942C127.008 111.434 126.933 111.033 126.783 110.74C126.64 110.441 126.428 110.229 126.148 110.106C125.875 109.976 125.533 109.91 125.123 109.91C124.719 109.91 124.358 109.995 124.039 110.164C123.72 110.334 123.45 110.565 123.229 110.858C123.014 111.151 122.848 111.489 122.73 111.873C122.613 112.257 122.555 112.668 122.555 113.104Z" fill="#4B525D"/>
<path d="M138.219 116.59V103.778H140.582V118.778H138.443L138.219 116.59ZM131.344 113.612V113.406C131.344 112.606 131.438 111.877 131.627 111.219C131.816 110.555 132.089 109.985 132.447 109.51C132.805 109.028 133.242 108.66 133.756 108.406C134.27 108.146 134.85 108.016 135.494 108.016C136.132 108.016 136.692 108.14 137.174 108.387C137.656 108.634 138.066 108.989 138.404 109.451C138.743 109.907 139.013 110.454 139.215 111.092C139.417 111.724 139.56 112.427 139.645 113.201V113.856C139.56 114.611 139.417 115.301 139.215 115.926C139.013 116.551 138.743 117.091 138.404 117.547C138.066 118.003 137.652 118.354 137.164 118.602C136.682 118.849 136.119 118.973 135.475 118.973C134.837 118.973 134.26 118.839 133.746 118.573C133.238 118.306 132.805 117.931 132.447 117.449C132.089 116.968 131.816 116.401 131.627 115.75C131.438 115.093 131.344 114.38 131.344 113.612ZM133.697 113.406V113.612C133.697 114.093 133.74 114.543 133.824 114.959C133.915 115.376 134.055 115.744 134.244 116.063C134.433 116.375 134.677 116.623 134.977 116.805C135.283 116.981 135.647 117.069 136.07 117.069C136.604 117.069 137.044 116.951 137.389 116.717C137.734 116.483 138.004 116.167 138.199 115.77C138.401 115.366 138.538 114.917 138.609 114.422V112.655C138.57 112.27 138.489 111.912 138.365 111.58C138.248 111.248 138.089 110.959 137.887 110.711C137.685 110.457 137.434 110.262 137.135 110.125C136.842 109.982 136.493 109.91 136.09 109.91C135.66 109.91 135.296 110.002 134.996 110.184C134.697 110.366 134.449 110.617 134.254 110.936C134.065 111.255 133.925 111.626 133.834 112.049C133.743 112.472 133.697 112.925 133.697 113.406Z" fill="#4B525D"/> -->
</svg>
