<svg width="13" height="17" viewBox="0 0 13 17" fill="none" xmlns="http://www.w3.org/2000/svg">
<path d="M5.94054 0.567809C6.24968 0.258647 6.75097 0.258647 7.06011 0.567809L9.43511 2.94281C9.74426 3.25198 9.74426 3.75323 9.43511 4.0624C9.12597 4.37156 8.62468 4.37156 8.31554 4.0624L7.29199 3.03885V10.6276C7.29199 11.0648 6.93756 11.4193 6.50033 11.4193C6.06309 11.4193 5.70866 11.0648 5.70866 10.6276V3.03885L4.68512 4.0624C4.37595 4.37156 3.8747 4.37156 3.56553 4.0624C3.25637 3.75323 3.25637 3.25198 3.56553 2.94281L5.94054 0.567809ZM0.166992 7.46094C0.166992 6.58649 0.875874 5.8776 1.75033 5.8776H3.33366C3.77088 5.8776 4.12533 6.23205 4.12533 6.66927C4.12533 7.10651 3.77088 7.46094 3.33366 7.46094H1.75033V14.5859H11.2503V7.46094H9.66699C9.22975 7.46094 8.87533 7.10651 8.87533 6.66927C8.87533 6.23205 9.22975 5.8776 9.66699 5.8776H11.2503C12.1248 5.8776 12.8337 6.58649 12.8337 7.46094V14.5859C12.8337 15.4604 12.1248 16.1693 11.2503 16.1693H1.75033C0.875874 16.1693 0.166992 15.4604 0.166992 14.5859V7.46094Z" fill="white"/>
</svg>
