<svg width="93" height="121" viewBox="0 0 93 121" fill="none" xmlns="http://www.w3.org/2000/svg">
<g opacity="0.2">
<rect y="0.0371094" width="93" height="93" rx="46.5" fill="white"/>
<rect x="0.93" y="0.967109" width="91.14" height="91.14" rx="45.57" stroke="#424242" stroke-opacity="0.3" stroke-width="1.86"/>
</g>
<g clip-path="url(#clip0_249_5174)">
<path d="M67.002 63.7158H54.5601L47.0039 50.5397H59.4458L67.002 63.7158Z" fill="#800000"/>
<path d="M46.9582 29.0358L53.1958 39.7684L39.4162 63.7197H26.998L46.9582 29.0358Z" fill="#800000"/>
</g>
<path d="M19.5312 105.67L15.7656 116.037H14.2266L18.5625 104.662H19.5547L19.5312 105.67ZM22.6875 116.037L18.9141 105.67L18.8906 104.662H19.8828L24.2344 116.037H22.6875ZM22.4922 111.826V113.061H16.1016V111.826H22.4922ZM26.5156 107.584L28.3672 110.662L30.2422 107.584H31.9375L29.1719 111.756L32.0234 116.037H30.3516L28.3984 112.865L26.4453 116.037H24.7656L27.6094 111.756L24.8516 107.584H26.5156ZM35.0469 107.584V116.037H33.5938V107.584H35.0469ZM33.4844 105.342C33.4844 105.107 33.5547 104.91 33.6953 104.748C33.8411 104.587 34.0547 104.506 34.3359 104.506C34.612 104.506 34.8229 104.587 34.9688 104.748C35.1198 104.91 35.1953 105.107 35.1953 105.342C35.1953 105.566 35.1198 105.758 34.9688 105.92C34.8229 106.076 34.612 106.154 34.3359 106.154C34.0547 106.154 33.8411 106.076 33.6953 105.92C33.5547 105.758 33.4844 105.566 33.4844 105.342ZM42.2891 113.795C42.2891 113.587 42.2422 113.394 42.1484 113.217C42.0599 113.035 41.875 112.87 41.5938 112.725C41.3177 112.574 40.901 112.443 40.3438 112.334C39.875 112.235 39.4505 112.118 39.0703 111.982C38.6953 111.847 38.375 111.683 38.1094 111.49C37.849 111.298 37.6484 111.071 37.5078 110.811C37.3672 110.55 37.2969 110.245 37.2969 109.896C37.2969 109.563 37.3698 109.248 37.5156 108.951C37.6667 108.654 37.8776 108.391 38.1484 108.162C38.4245 107.933 38.7552 107.753 39.1406 107.623C39.526 107.493 39.9557 107.428 40.4297 107.428C41.1068 107.428 41.6849 107.548 42.1641 107.787C42.6432 108.027 43.0104 108.347 43.2656 108.748C43.5208 109.144 43.6484 109.584 43.6484 110.068H42.2031C42.2031 109.834 42.1328 109.607 41.9922 109.389C41.8568 109.165 41.6562 108.98 41.3906 108.834C41.1302 108.688 40.8099 108.615 40.4297 108.615C40.0286 108.615 39.7031 108.678 39.4531 108.803C39.2083 108.923 39.0286 109.076 38.9141 109.264C38.8047 109.451 38.75 109.649 38.75 109.857C38.75 110.014 38.776 110.154 38.8281 110.279C38.8854 110.399 38.9844 110.511 39.125 110.615C39.2656 110.714 39.4635 110.808 39.7188 110.896C39.974 110.985 40.2995 111.074 40.6953 111.162C41.388 111.318 41.9583 111.506 42.4062 111.725C42.8542 111.943 43.1875 112.212 43.4062 112.529C43.625 112.847 43.7344 113.232 43.7344 113.686C43.7344 114.055 43.6562 114.394 43.5 114.701C43.349 115.008 43.1276 115.274 42.8359 115.498C42.5495 115.717 42.2057 115.889 41.8047 116.014C41.4089 116.133 40.9635 116.193 40.4688 116.193C39.724 116.193 39.0938 116.061 38.5781 115.795C38.0625 115.529 37.6719 115.186 37.4062 114.764C37.1406 114.342 37.0078 113.896 37.0078 113.428H38.4609C38.4818 113.824 38.5964 114.139 38.8047 114.373C39.013 114.602 39.2682 114.766 39.5703 114.865C39.8724 114.959 40.1719 115.006 40.4688 115.006C40.8646 115.006 41.1953 114.954 41.4609 114.85C41.7318 114.745 41.9375 114.602 42.0781 114.42C42.2188 114.238 42.2891 114.029 42.2891 113.795ZM53.875 110.717H50.9922L50.9766 109.506H53.5938C54.026 109.506 54.4036 109.433 54.7266 109.287C55.0495 109.141 55.2995 108.933 55.4766 108.662C55.6589 108.386 55.75 108.058 55.75 107.678C55.75 107.261 55.6693 106.923 55.5078 106.662C55.3516 106.396 55.1094 106.204 54.7812 106.084C54.4583 105.959 54.0469 105.896 53.5469 105.896H51.3281V116.037H49.8203V104.662H53.5469C54.1302 104.662 54.651 104.722 55.1094 104.842C55.5677 104.956 55.9557 105.139 56.2734 105.389C56.5964 105.633 56.8411 105.946 57.0078 106.326C57.1745 106.706 57.2578 107.162 57.2578 107.693C57.2578 108.162 57.138 108.587 56.8984 108.967C56.6589 109.342 56.3255 109.649 55.8984 109.889C55.4766 110.128 54.9818 110.282 54.4141 110.35L53.875 110.717ZM53.8047 116.037H50.3984L51.25 114.811H53.8047C54.2839 114.811 54.6901 114.727 55.0234 114.561C55.362 114.394 55.6198 114.16 55.7969 113.857C55.974 113.55 56.0625 113.188 56.0625 112.771C56.0625 112.35 55.987 111.985 55.8359 111.678C55.6849 111.37 55.4479 111.133 55.125 110.967C54.8021 110.8 54.3854 110.717 53.875 110.717H51.7266L51.7422 109.506H54.6797L55 109.943C55.5469 109.99 56.0104 110.146 56.3906 110.412C56.7708 110.673 57.0599 111.006 57.2578 111.412C57.4609 111.818 57.5625 112.266 57.5625 112.756C57.5625 113.464 57.4062 114.063 57.0938 114.553C56.7865 115.037 56.3516 115.407 55.7891 115.662C55.2266 115.912 54.5651 116.037 53.8047 116.037ZM64.5547 114.592V110.24C64.5547 109.907 64.487 109.618 64.3516 109.373C64.2214 109.123 64.0234 108.93 63.7578 108.795C63.4922 108.66 63.1641 108.592 62.7734 108.592C62.4089 108.592 62.0885 108.654 61.8125 108.779C61.5417 108.904 61.3281 109.068 61.1719 109.271C61.0208 109.475 60.9453 109.693 60.9453 109.928H59.5C59.5 109.626 59.5781 109.326 59.7344 109.029C59.8906 108.732 60.1146 108.464 60.4062 108.225C60.7031 107.98 61.0573 107.787 61.4688 107.646C61.8854 107.501 62.349 107.428 62.8594 107.428C63.474 107.428 64.0156 107.532 64.4844 107.74C64.9583 107.949 65.3281 108.264 65.5938 108.686C65.8646 109.102 66 109.626 66 110.256V114.193C66 114.475 66.0234 114.774 66.0703 115.092C66.1224 115.41 66.1979 115.683 66.2969 115.912V116.037H64.7891C64.7161 115.87 64.6589 115.649 64.6172 115.373C64.5755 115.092 64.5547 114.831 64.5547 114.592ZM64.8047 110.912L64.8203 111.928H63.3594C62.9479 111.928 62.5807 111.962 62.2578 112.029C61.9349 112.092 61.6641 112.188 61.4453 112.318C61.2266 112.449 61.0599 112.613 60.9453 112.811C60.8307 113.003 60.7734 113.23 60.7734 113.49C60.7734 113.756 60.8333 113.998 60.9531 114.217C61.0729 114.436 61.2526 114.61 61.4922 114.74C61.737 114.865 62.0365 114.928 62.3906 114.928C62.8333 114.928 63.224 114.834 63.5625 114.646C63.901 114.459 64.1693 114.23 64.3672 113.959C64.5703 113.688 64.6797 113.425 64.6953 113.17L65.3125 113.865C65.276 114.084 65.1771 114.326 65.0156 114.592C64.8542 114.857 64.638 115.113 64.3672 115.357C64.1016 115.597 63.7839 115.798 63.4141 115.959C63.0495 116.115 62.638 116.193 62.1797 116.193C61.6068 116.193 61.1042 116.081 60.6719 115.857C60.2448 115.633 59.9115 115.334 59.6719 114.959C59.4375 114.579 59.3203 114.154 59.3203 113.686C59.3203 113.232 59.4089 112.834 59.5859 112.49C59.763 112.141 60.0182 111.852 60.3516 111.623C60.6849 111.389 61.0859 111.212 61.5547 111.092C62.0234 110.972 62.5469 110.912 63.125 110.912H64.8047ZM69.7188 109.389V116.037H68.2734V107.584H69.6406L69.7188 109.389ZM69.375 111.49L68.7734 111.467C68.7786 110.889 68.8646 110.355 69.0312 109.865C69.1979 109.37 69.4323 108.941 69.7344 108.576C70.0365 108.212 70.3958 107.93 70.8125 107.732C71.2344 107.529 71.7005 107.428 72.2109 107.428C72.6276 107.428 73.0026 107.485 73.3359 107.6C73.6693 107.709 73.9531 107.886 74.1875 108.131C74.4271 108.376 74.6094 108.693 74.7344 109.084C74.8594 109.469 74.9219 109.941 74.9219 110.498V116.037H73.4688V110.482C73.4688 110.04 73.4036 109.686 73.2734 109.42C73.1432 109.149 72.9531 108.954 72.7031 108.834C72.4531 108.709 72.1458 108.646 71.7812 108.646C71.4219 108.646 71.0938 108.722 70.7969 108.873C70.5052 109.024 70.2526 109.232 70.0391 109.498C69.8307 109.764 69.6667 110.068 69.5469 110.412C69.4323 110.751 69.375 111.11 69.375 111.49ZM78.5703 104.037V116.037H77.1172V104.037H78.5703ZM83.7344 107.584L80.0469 111.529L77.9844 113.67L77.8672 112.131L79.3438 110.365L81.9688 107.584H83.7344ZM82.4141 116.037L79.3984 112.006L80.1484 110.717L84.1172 116.037H82.4141Z" fill="#6E6E6E"/>
<defs>
<clipPath id="clip0_249_5174">
<rect width="40" height="34.6821" fill="white" transform="translate(27 29.0371)"/>
</clipPath>
</defs>
</svg>
