<svg width="110" height="121" viewBox="0 0 110 121" fill="none" xmlns="http://www.w3.org/2000/svg">
<g opacity="0.2">
<rect x="9" y="0.0371094" width="93" height="93" rx="46.5" fill="white"/>
<rect x="9.93" y="0.967109" width="91.14" height="91.14" rx="45.57" stroke="#424242" stroke-opacity="0.3" stroke-width="1.86"/>
</g>
<g clip-path="url(#clip0_249_5227)">
<path d="M57.9429 63.3627L41.9043 63.3821V62.9569L53.7111 62.4932C55.9526 62.4159 58.1362 62.2999 60.2425 61.5656C64.5516 60.1164 68.0106 57.1792 69.0154 53.5463C70.0975 49.6429 67.6048 45.8555 62.9091 45.527C66.8898 44.3676 70.2908 41.8362 71.199 38.5898C72.3777 34.3772 70.2521 32.2323 66.6579 31.4594C72.6289 31.3627 77.2859 33.3724 75.7014 39.0729C74.7932 42.3193 71.3149 44.7927 67.3536 45.8748C72.0106 46.2226 74.542 50.6478 73.3246 54.5125C72.0492 58.5318 68.8029 61.0246 64.4743 62.4739C62.3681 63.1502 60.1845 63.2661 57.9429 63.3627Z" fill="#F15A29"/>
<path d="M49.5381 61.3337L41.9632 61.7009C41.9632 61.5076 41.9439 61.4497 41.9246 61.2564L61.055 55.7299L61.0743 55.4207L41.6927 60.0777C41.6347 59.9038 41.6154 59.8458 41.5381 59.6719L61.9052 48.3675L61.77 48.0584L40.939 58.7057C40.8038 58.5318 40.8231 58.5125 40.6878 58.3579L64.8811 35.5366L64.6685 35.2854L39.741 57.5849C39.625 57.5076 39.5671 57.4303 39.4318 57.353L57.113 31.5559L56.8038 31.4593L38.369 56.8699C38.2724 56.8313 38.1564 56.812 38.0598 56.7733L48.1854 31.8265L47.9149 31.7878L36.5139 56.5414C36.3787 56.5414 36.2241 56.5414 36.0888 56.5608H35.9922L43.3352 30.01L57.0743 30.0487C63.5671 29.6815 68.7072 31.44 67.0067 37.4883C66.0985 40.7347 62.6975 43.2661 58.7361 44.3482L58.7168 44.4255C63.4125 44.754 66.0598 48.5414 64.9777 52.4448C63.9729 56.0777 60.34 58.9183 56.0308 60.3675C53.9439 61.1405 51.7603 61.2564 49.5381 61.3337Z" fill="#F15A29"/>
</g>
<path d="M5.375 110.717H2.49219L2.47656 109.506H5.09375C5.52604 109.506 5.90365 109.433 6.22656 109.287C6.54948 109.141 6.79948 108.933 6.97656 108.662C7.15885 108.386 7.25 108.058 7.25 107.678C7.25 107.261 7.16927 106.923 7.00781 106.662C6.85156 106.396 6.60938 106.204 6.28125 106.084C5.95833 105.959 5.54688 105.896 5.04688 105.896H2.82812V116.037H1.32031V104.662H5.04688C5.63021 104.662 6.15104 104.722 6.60938 104.842C7.06771 104.956 7.45573 105.139 7.77344 105.389C8.09635 105.633 8.34115 105.946 8.50781 106.326C8.67448 106.706 8.75781 107.162 8.75781 107.693C8.75781 108.162 8.63802 108.587 8.39844 108.967C8.15885 109.342 7.82552 109.649 7.39844 109.889C6.97656 110.128 6.48177 110.282 5.91406 110.35L5.375 110.717ZM5.30469 116.037H1.89844L2.75 114.811H5.30469C5.78385 114.811 6.1901 114.727 6.52344 114.561C6.86198 114.394 7.11979 114.16 7.29688 113.857C7.47396 113.55 7.5625 113.188 7.5625 112.771C7.5625 112.35 7.48698 111.985 7.33594 111.678C7.1849 111.37 6.94792 111.133 6.625 110.967C6.30208 110.8 5.88542 110.717 5.375 110.717H3.22656L3.24219 109.506H6.17969L6.5 109.943C7.04688 109.99 7.51042 110.146 7.89062 110.412C8.27083 110.673 8.5599 111.006 8.75781 111.412C8.96094 111.818 9.0625 112.266 9.0625 112.756C9.0625 113.464 8.90625 114.063 8.59375 114.553C8.28646 115.037 7.85156 115.407 7.28906 115.662C6.72656 115.912 6.0651 116.037 5.30469 116.037ZM16.0547 114.592V110.24C16.0547 109.907 15.987 109.618 15.8516 109.373C15.7214 109.123 15.5234 108.93 15.2578 108.795C14.9922 108.66 14.6641 108.592 14.2734 108.592C13.9089 108.592 13.5885 108.654 13.3125 108.779C13.0417 108.904 12.8281 109.068 12.6719 109.271C12.5208 109.475 12.4453 109.693 12.4453 109.928H11C11 109.626 11.0781 109.326 11.2344 109.029C11.3906 108.732 11.6146 108.464 11.9062 108.225C12.2031 107.98 12.5573 107.787 12.9688 107.646C13.3854 107.501 13.849 107.428 14.3594 107.428C14.974 107.428 15.5156 107.532 15.9844 107.74C16.4583 107.949 16.8281 108.264 17.0938 108.686C17.3646 109.102 17.5 109.626 17.5 110.256V114.193C17.5 114.475 17.5234 114.774 17.5703 115.092C17.6224 115.41 17.6979 115.683 17.7969 115.912V116.037H16.2891C16.2161 115.87 16.1589 115.649 16.1172 115.373C16.0755 115.092 16.0547 114.831 16.0547 114.592ZM16.3047 110.912L16.3203 111.928H14.8594C14.4479 111.928 14.0807 111.962 13.7578 112.029C13.4349 112.092 13.1641 112.188 12.9453 112.318C12.7266 112.449 12.5599 112.613 12.4453 112.811C12.3307 113.003 12.2734 113.23 12.2734 113.49C12.2734 113.756 12.3333 113.998 12.4531 114.217C12.5729 114.436 12.7526 114.61 12.9922 114.74C13.237 114.865 13.5365 114.928 13.8906 114.928C14.3333 114.928 14.724 114.834 15.0625 114.646C15.401 114.459 15.6693 114.23 15.8672 113.959C16.0703 113.688 16.1797 113.425 16.1953 113.17L16.8125 113.865C16.776 114.084 16.6771 114.326 16.5156 114.592C16.3542 114.857 16.138 115.113 15.8672 115.357C15.6016 115.597 15.2839 115.798 14.9141 115.959C14.5495 116.115 14.138 116.193 13.6797 116.193C13.1068 116.193 12.6042 116.081 12.1719 115.857C11.7448 115.633 11.4115 115.334 11.1719 114.959C10.9375 114.579 10.8203 114.154 10.8203 113.686C10.8203 113.232 10.9089 112.834 11.0859 112.49C11.263 112.141 11.5182 111.852 11.8516 111.623C12.1849 111.389 12.5859 111.212 13.0547 111.092C13.5234 110.972 14.0469 110.912 14.625 110.912H16.3047ZM21.2188 109.389V116.037H19.7734V107.584H21.1406L21.2188 109.389ZM20.875 111.49L20.2734 111.467C20.2786 110.889 20.3646 110.355 20.5312 109.865C20.6979 109.37 20.9323 108.941 21.2344 108.576C21.5365 108.212 21.8958 107.93 22.3125 107.732C22.7344 107.529 23.2005 107.428 23.7109 107.428C24.1276 107.428 24.5026 107.485 24.8359 107.6C25.1693 107.709 25.4531 107.886 25.6875 108.131C25.9271 108.376 26.1094 108.693 26.2344 109.084C26.3594 109.469 26.4219 109.941 26.4219 110.498V116.037H24.9688V110.482C24.9688 110.04 24.9036 109.686 24.7734 109.42C24.6432 109.149 24.4531 108.954 24.2031 108.834C23.9531 108.709 23.6458 108.646 23.2812 108.646C22.9219 108.646 22.5938 108.722 22.2969 108.873C22.0052 109.024 21.7526 109.232 21.5391 109.498C21.3307 109.764 21.1667 110.068 21.0469 110.412C20.9323 110.751 20.875 111.11 20.875 111.49ZM30.0703 104.037V116.037H28.6172V104.037H30.0703ZM35.2344 107.584L31.5469 111.529L29.4844 113.67L29.3672 112.131L30.8438 110.365L33.4688 107.584H35.2344ZM33.9141 116.037L30.8984 112.006L31.6484 110.717L35.6172 116.037H33.9141ZM40.3125 111.904V111.725C40.3125 111.115 40.401 110.55 40.5781 110.029C40.7552 109.503 41.0104 109.048 41.3438 108.662C41.6771 108.271 42.0807 107.969 42.5547 107.756C43.0286 107.537 43.5599 107.428 44.1484 107.428C44.7422 107.428 45.276 107.537 45.75 107.756C46.2292 107.969 46.6354 108.271 46.9688 108.662C47.3073 109.048 47.5651 109.503 47.7422 110.029C47.9193 110.55 48.0078 111.115 48.0078 111.725V111.904C48.0078 112.514 47.9193 113.079 47.7422 113.6C47.5651 114.12 47.3073 114.576 46.9688 114.967C46.6354 115.352 46.2318 115.654 45.7578 115.873C45.2891 116.087 44.7578 116.193 44.1641 116.193C43.5703 116.193 43.0365 116.087 42.5625 115.873C42.0885 115.654 41.6823 115.352 41.3438 114.967C41.0104 114.576 40.7552 114.12 40.5781 113.6C40.401 113.079 40.3125 112.514 40.3125 111.904ZM41.7578 111.725V111.904C41.7578 112.326 41.8073 112.725 41.9062 113.1C42.0052 113.469 42.1536 113.798 42.3516 114.084C42.5547 114.37 42.8073 114.597 43.1094 114.764C43.4115 114.925 43.763 115.006 44.1641 115.006C44.5599 115.006 44.9062 114.925 45.2031 114.764C45.5052 114.597 45.7552 114.37 45.9531 114.084C46.151 113.798 46.2995 113.469 46.3984 113.1C46.5026 112.725 46.5547 112.326 46.5547 111.904V111.725C46.5547 111.308 46.5026 110.915 46.3984 110.545C46.2995 110.17 46.1484 109.839 45.9453 109.553C45.7474 109.261 45.4974 109.032 45.1953 108.865C44.8984 108.699 44.5495 108.615 44.1484 108.615C43.7526 108.615 43.4036 108.699 43.1016 108.865C42.8047 109.032 42.5547 109.261 42.3516 109.553C42.1536 109.839 42.0052 110.17 41.9062 110.545C41.8073 110.915 41.7578 111.308 41.7578 111.725ZM51.9766 116.037H50.5312V106.693C50.5312 106.084 50.6406 105.571 50.8594 105.154C51.0833 104.732 51.4036 104.415 51.8203 104.201C52.237 103.982 52.7318 103.873 53.3047 103.873C53.4714 103.873 53.638 103.883 53.8047 103.904C53.9766 103.925 54.1432 103.956 54.3047 103.998L54.2266 105.178C54.1172 105.152 53.9922 105.133 53.8516 105.123C53.7161 105.113 53.5807 105.107 53.4453 105.107C53.138 105.107 52.8724 105.17 52.6484 105.295C52.4297 105.415 52.263 105.592 52.1484 105.826C52.0339 106.061 51.9766 106.35 51.9766 106.693V116.037ZM53.7734 107.584V108.693H49.1953V107.584H53.7734ZM63.625 110.717H60.7422L60.7266 109.506H63.3438C63.776 109.506 64.1536 109.433 64.4766 109.287C64.7995 109.141 65.0495 108.933 65.2266 108.662C65.4089 108.386 65.5 108.058 65.5 107.678C65.5 107.261 65.4193 106.923 65.2578 106.662C65.1016 106.396 64.8594 106.204 64.5312 106.084C64.2083 105.959 63.7969 105.896 63.2969 105.896H61.0781V116.037H59.5703V104.662H63.2969C63.8802 104.662 64.401 104.722 64.8594 104.842C65.3177 104.956 65.7057 105.139 66.0234 105.389C66.3464 105.633 66.5911 105.946 66.7578 106.326C66.9245 106.706 67.0078 107.162 67.0078 107.693C67.0078 108.162 66.888 108.587 66.6484 108.967C66.4089 109.342 66.0755 109.649 65.6484 109.889C65.2266 110.128 64.7318 110.282 64.1641 110.35L63.625 110.717ZM63.5547 116.037H60.1484L61 114.811H63.5547C64.0339 114.811 64.4401 114.727 64.7734 114.561C65.112 114.394 65.3698 114.16 65.5469 113.857C65.724 113.55 65.8125 113.188 65.8125 112.771C65.8125 112.35 65.737 111.985 65.5859 111.678C65.4349 111.37 65.1979 111.133 64.875 110.967C64.5521 110.8 64.1354 110.717 63.625 110.717H61.4766L61.4922 109.506H64.4297L64.75 109.943C65.2969 109.99 65.7604 110.146 66.1406 110.412C66.5208 110.673 66.8099 111.006 67.0078 111.412C67.2109 111.818 67.3125 112.266 67.3125 112.756C67.3125 113.464 67.1562 114.063 66.8438 114.553C66.5365 115.037 66.1016 115.407 65.5391 115.662C64.9766 115.912 64.3151 116.037 63.5547 116.037ZM74.3047 114.592V110.24C74.3047 109.907 74.237 109.618 74.1016 109.373C73.9714 109.123 73.7734 108.93 73.5078 108.795C73.2422 108.66 72.9141 108.592 72.5234 108.592C72.1589 108.592 71.8385 108.654 71.5625 108.779C71.2917 108.904 71.0781 109.068 70.9219 109.271C70.7708 109.475 70.6953 109.693 70.6953 109.928H69.25C69.25 109.626 69.3281 109.326 69.4844 109.029C69.6406 108.732 69.8646 108.464 70.1562 108.225C70.4531 107.98 70.8073 107.787 71.2188 107.646C71.6354 107.501 72.099 107.428 72.6094 107.428C73.224 107.428 73.7656 107.532 74.2344 107.74C74.7083 107.949 75.0781 108.264 75.3438 108.686C75.6146 109.102 75.75 109.626 75.75 110.256V114.193C75.75 114.475 75.7734 114.774 75.8203 115.092C75.8724 115.41 75.9479 115.683 76.0469 115.912V116.037H74.5391C74.4661 115.87 74.4089 115.649 74.3672 115.373C74.3255 115.092 74.3047 114.831 74.3047 114.592ZM74.5547 110.912L74.5703 111.928H73.1094C72.6979 111.928 72.3307 111.962 72.0078 112.029C71.6849 112.092 71.4141 112.188 71.1953 112.318C70.9766 112.449 70.8099 112.613 70.6953 112.811C70.5807 113.003 70.5234 113.23 70.5234 113.49C70.5234 113.756 70.5833 113.998 70.7031 114.217C70.8229 114.436 71.0026 114.61 71.2422 114.74C71.487 114.865 71.7865 114.928 72.1406 114.928C72.5833 114.928 72.974 114.834 73.3125 114.646C73.651 114.459 73.9193 114.23 74.1172 113.959C74.3203 113.688 74.4297 113.425 74.4453 113.17L75.0625 113.865C75.026 114.084 74.9271 114.326 74.7656 114.592C74.6042 114.857 74.388 115.113 74.1172 115.357C73.8516 115.597 73.5339 115.798 73.1641 115.959C72.7995 116.115 72.388 116.193 71.9297 116.193C71.3568 116.193 70.8542 116.081 70.4219 115.857C69.9948 115.633 69.6615 115.334 69.4219 114.959C69.1875 114.579 69.0703 114.154 69.0703 113.686C69.0703 113.232 69.1589 112.834 69.3359 112.49C69.513 112.141 69.7682 111.852 70.1016 111.623C70.4349 111.389 70.8359 111.212 71.3047 111.092C71.7734 110.972 72.2969 110.912 72.875 110.912H74.5547ZM79.4688 108.912V116.037H78.0234V107.584H79.4297L79.4688 108.912ZM82.1094 107.537L82.1016 108.881C81.9818 108.855 81.8672 108.839 81.7578 108.834C81.6536 108.824 81.5339 108.818 81.3984 108.818C81.0651 108.818 80.7708 108.87 80.5156 108.975C80.2604 109.079 80.0443 109.225 79.8672 109.412C79.6901 109.6 79.5495 109.824 79.4453 110.084C79.3464 110.339 79.2812 110.62 79.25 110.928L78.8438 111.162C78.8438 110.652 78.8932 110.173 78.9922 109.725C79.0964 109.277 79.2552 108.881 79.4688 108.537C79.6823 108.188 79.9531 107.917 80.2812 107.725C80.6146 107.527 81.0104 107.428 81.4688 107.428C81.5729 107.428 81.6927 107.441 81.8281 107.467C81.9635 107.488 82.0573 107.511 82.1094 107.537ZM82.9062 111.904V111.725C82.9062 111.115 82.9948 110.55 83.1719 110.029C83.349 109.503 83.6042 109.048 83.9375 108.662C84.2708 108.271 84.6745 107.969 85.1484 107.756C85.6224 107.537 86.1536 107.428 86.7422 107.428C87.3359 107.428 87.8698 107.537 88.3438 107.756C88.8229 107.969 89.2292 108.271 89.5625 108.662C89.901 109.048 90.1589 109.503 90.3359 110.029C90.513 110.55 90.6016 111.115 90.6016 111.725V111.904C90.6016 112.514 90.513 113.079 90.3359 113.6C90.1589 114.12 89.901 114.576 89.5625 114.967C89.2292 115.352 88.8255 115.654 88.3516 115.873C87.8828 116.087 87.3516 116.193 86.7578 116.193C86.1641 116.193 85.6302 116.087 85.1562 115.873C84.6823 115.654 84.276 115.352 83.9375 114.967C83.6042 114.576 83.349 114.12 83.1719 113.6C82.9948 113.079 82.9062 112.514 82.9062 111.904ZM84.3516 111.725V111.904C84.3516 112.326 84.401 112.725 84.5 113.1C84.599 113.469 84.7474 113.798 84.9453 114.084C85.1484 114.37 85.401 114.597 85.7031 114.764C86.0052 114.925 86.3568 115.006 86.7578 115.006C87.1536 115.006 87.5 114.925 87.7969 114.764C88.099 114.597 88.349 114.37 88.5469 114.084C88.7448 113.798 88.8932 113.469 88.9922 113.1C89.0964 112.725 89.1484 112.326 89.1484 111.904V111.725C89.1484 111.308 89.0964 110.915 88.9922 110.545C88.8932 110.17 88.7422 109.839 88.5391 109.553C88.3411 109.261 88.0911 109.032 87.7891 108.865C87.4922 108.699 87.1432 108.615 86.7422 108.615C86.3464 108.615 85.9974 108.699 85.6953 108.865C85.3984 109.032 85.1484 109.261 84.9453 109.553C84.7474 109.839 84.599 110.17 84.5 110.545C84.401 110.915 84.3516 111.308 84.3516 111.725ZM97.7422 114.396V104.037H99.1953V116.037H97.8672L97.7422 114.396ZM92.0547 111.904V111.74C92.0547 111.094 92.1328 110.508 92.2891 109.982C92.4505 109.451 92.6771 108.995 92.9688 108.615C93.2656 108.235 93.6172 107.943 94.0234 107.74C94.4349 107.532 94.8932 107.428 95.3984 107.428C95.9297 107.428 96.3932 107.521 96.7891 107.709C97.1901 107.891 97.5286 108.16 97.8047 108.514C98.0859 108.863 98.3073 109.285 98.4688 109.779C98.6302 110.274 98.7422 110.834 98.8047 111.459V112.178C98.7474 112.798 98.6354 113.355 98.4688 113.85C98.3073 114.344 98.0859 114.766 97.8047 115.115C97.5286 115.464 97.1901 115.732 96.7891 115.92C96.388 116.102 95.9193 116.193 95.3828 116.193C94.888 116.193 94.4349 116.087 94.0234 115.873C93.6172 115.66 93.2656 115.36 92.9688 114.975C92.6771 114.589 92.4505 114.136 92.2891 113.615C92.1328 113.089 92.0547 112.519 92.0547 111.904ZM93.5078 111.74V111.904C93.5078 112.326 93.5495 112.722 93.6328 113.092C93.7214 113.462 93.8568 113.787 94.0391 114.068C94.2214 114.35 94.4531 114.571 94.7344 114.732C95.0156 114.889 95.3516 114.967 95.7422 114.967C96.2214 114.967 96.6146 114.865 96.9219 114.662C97.2344 114.459 97.4844 114.191 97.6719 113.857C97.8594 113.524 98.0052 113.162 98.1094 112.771V110.889C98.0469 110.602 97.9557 110.326 97.8359 110.061C97.7214 109.79 97.5703 109.55 97.3828 109.342C97.2005 109.128 96.974 108.959 96.7031 108.834C96.4375 108.709 96.1224 108.646 95.7578 108.646C95.362 108.646 95.0208 108.73 94.7344 108.896C94.4531 109.058 94.2214 109.282 94.0391 109.568C93.8568 109.85 93.7214 110.178 93.6328 110.553C93.5495 110.923 93.5078 111.318 93.5078 111.74ZM106.43 114.592V110.24C106.43 109.907 106.362 109.618 106.227 109.373C106.096 109.123 105.898 108.93 105.633 108.795C105.367 108.66 105.039 108.592 104.648 108.592C104.284 108.592 103.964 108.654 103.688 108.779C103.417 108.904 103.203 109.068 103.047 109.271C102.896 109.475 102.82 109.693 102.82 109.928H101.375C101.375 109.626 101.453 109.326 101.609 109.029C101.766 108.732 101.99 108.464 102.281 108.225C102.578 107.98 102.932 107.787 103.344 107.646C103.76 107.501 104.224 107.428 104.734 107.428C105.349 107.428 105.891 107.532 106.359 107.74C106.833 107.949 107.203 108.264 107.469 108.686C107.74 109.102 107.875 109.626 107.875 110.256V114.193C107.875 114.475 107.898 114.774 107.945 115.092C107.997 115.41 108.073 115.683 108.172 115.912V116.037H106.664C106.591 115.87 106.534 115.649 106.492 115.373C106.451 115.092 106.43 114.831 106.43 114.592ZM106.68 110.912L106.695 111.928H105.234C104.823 111.928 104.456 111.962 104.133 112.029C103.81 112.092 103.539 112.188 103.32 112.318C103.102 112.449 102.935 112.613 102.82 112.811C102.706 113.003 102.648 113.23 102.648 113.49C102.648 113.756 102.708 113.998 102.828 114.217C102.948 114.436 103.128 114.61 103.367 114.74C103.612 114.865 103.911 114.928 104.266 114.928C104.708 114.928 105.099 114.834 105.438 114.646C105.776 114.459 106.044 114.23 106.242 113.959C106.445 113.688 106.555 113.425 106.57 113.17L107.188 113.865C107.151 114.084 107.052 114.326 106.891 114.592C106.729 114.857 106.513 115.113 106.242 115.357C105.977 115.597 105.659 115.798 105.289 115.959C104.924 116.115 104.513 116.193 104.055 116.193C103.482 116.193 102.979 116.081 102.547 115.857C102.12 115.633 101.786 115.334 101.547 114.959C101.312 114.579 101.195 114.154 101.195 113.686C101.195 113.232 101.284 112.834 101.461 112.49C101.638 112.141 101.893 111.852 102.227 111.623C102.56 111.389 102.961 111.212 103.43 111.092C103.898 110.972 104.422 110.912 105 110.912H106.68Z" fill="#6E6E6E"/>
<defs>
<clipPath id="clip0_249_5227">
<rect width="40" height="33.3333" fill="white" transform="translate(36 30.0371)"/>
</clipPath>
</defs>
</svg>
