<svg width="93" height="121" viewBox="0 0 93 121" fill="none" xmlns="http://www.w3.org/2000/svg">
<g opacity="0.2">
<rect y="0.0371094" width="93" height="93" rx="46.5" fill="white"/>
<rect x="0.93" y="0.967109" width="91.14" height="91.14" rx="45.57" stroke="#424242" stroke-opacity="0.3" stroke-width="1.86"/>
</g>
<path d="M27 26.0372H67V66.0483H27V26.0372Z" fill="#ED232A"/>
<path d="M34.0703 32.9077H59.9289V58.9756H34.0703V32.9077Z" fill="white"/>
<path d="M44.9824 26.0372H49.0228V66.0483H44.9824V26.0372Z" fill="white"/>
<path d="M27 44.0219H67V48.0635H27V44.0219Z" fill="white"/>
<path d="M40.9395 39.9798H52.8586V51.9023H40.9395V39.9798Z" fill="#004C8F"/>
<path d="M14.75 109.553V110.779H8.59375V109.553H14.75ZM8.82812 104.662V116.037H7.32031V104.662H8.82812ZM16.0625 104.662V116.037H14.5625V104.662H16.0625ZM21.8203 116.037H19.4453L19.4609 114.811H21.8203C22.6328 114.811 23.3099 114.641 23.8516 114.303C24.3932 113.959 24.7995 113.48 25.0703 112.865C25.3464 112.245 25.4844 111.521 25.4844 110.693V109.998C25.4844 109.347 25.4062 108.769 25.25 108.264C25.0938 107.753 24.8646 107.324 24.5625 106.975C24.2604 106.62 23.8906 106.352 23.4531 106.17C23.0208 105.988 22.5234 105.896 21.9609 105.896H19.3984V104.662H21.9609C22.7057 104.662 23.3854 104.787 24 105.037C24.6146 105.282 25.1432 105.639 25.5859 106.107C26.0339 106.571 26.3776 107.133 26.6172 107.795C26.8568 108.451 26.9766 109.191 26.9766 110.014V110.693C26.9766 111.516 26.8568 112.258 26.6172 112.92C26.3776 113.576 26.0312 114.136 25.5781 114.6C25.1302 115.063 24.5885 115.42 23.9531 115.67C23.3229 115.915 22.612 116.037 21.8203 116.037ZM20.25 104.662V116.037H18.7422V104.662H20.25ZM30.75 104.662V116.037H29.2422V104.662H30.75ZM35.5156 109.779V111.014H30.4219V109.779H35.5156ZM36.2891 104.662V105.896H30.4219V104.662H36.2891ZM44.9531 112.42H46.4531C46.375 113.139 46.1693 113.782 45.8359 114.35C45.5026 114.917 45.0312 115.368 44.4219 115.701C43.8125 116.029 43.0521 116.193 42.1406 116.193C41.474 116.193 40.8672 116.068 40.3203 115.818C39.7786 115.568 39.3125 115.214 38.9219 114.756C38.5312 114.292 38.2292 113.738 38.0156 113.092C37.8073 112.441 37.7031 111.717 37.7031 110.92V109.787C37.7031 108.99 37.8073 108.269 38.0156 107.623C38.2292 106.972 38.5339 106.415 38.9297 105.951C39.3307 105.488 39.8125 105.131 40.375 104.881C40.9375 104.631 41.5703 104.506 42.2734 104.506C43.1328 104.506 43.8594 104.667 44.4531 104.99C45.0469 105.313 45.5078 105.761 45.8359 106.334C46.1693 106.902 46.375 107.561 46.4531 108.311H44.9531C44.8802 107.779 44.7448 107.324 44.5469 106.943C44.349 106.558 44.0677 106.261 43.7031 106.053C43.3385 105.844 42.862 105.74 42.2734 105.74C41.7682 105.74 41.3229 105.837 40.9375 106.029C40.5573 106.222 40.237 106.495 39.9766 106.85C39.7214 107.204 39.5286 107.628 39.3984 108.123C39.2682 108.618 39.2031 109.167 39.2031 109.771V110.92C39.2031 111.477 39.2604 112.001 39.375 112.49C39.4948 112.98 39.6745 113.41 39.9141 113.779C40.1536 114.149 40.4583 114.441 40.8281 114.654C41.1979 114.863 41.6354 114.967 42.1406 114.967C42.7812 114.967 43.2917 114.865 43.6719 114.662C44.0521 114.459 44.3385 114.167 44.5312 113.787C44.7292 113.407 44.8698 112.951 44.9531 112.42ZM56.5312 110.717H53.6484L53.6328 109.506H56.25C56.6823 109.506 57.0599 109.433 57.3828 109.287C57.7057 109.141 57.9557 108.933 58.1328 108.662C58.3151 108.386 58.4062 108.058 58.4062 107.678C58.4062 107.261 58.3255 106.923 58.1641 106.662C58.0078 106.396 57.7656 106.204 57.4375 106.084C57.1146 105.959 56.7031 105.896 56.2031 105.896H53.9844V116.037H52.4766V104.662H56.2031C56.7865 104.662 57.3073 104.722 57.7656 104.842C58.224 104.956 58.612 105.139 58.9297 105.389C59.2526 105.633 59.4974 105.946 59.6641 106.326C59.8307 106.706 59.9141 107.162 59.9141 107.693C59.9141 108.162 59.7943 108.587 59.5547 108.967C59.3151 109.342 58.9818 109.649 58.5547 109.889C58.1328 110.128 57.638 110.282 57.0703 110.35L56.5312 110.717ZM56.4609 116.037H53.0547L53.9062 114.811H56.4609C56.9401 114.811 57.3464 114.727 57.6797 114.561C58.0182 114.394 58.276 114.16 58.4531 113.857C58.6302 113.55 58.7188 113.188 58.7188 112.771C58.7188 112.35 58.6432 111.985 58.4922 111.678C58.3411 111.37 58.1042 111.133 57.7812 110.967C57.4583 110.8 57.0417 110.717 56.5312 110.717H54.3828L54.3984 109.506H57.3359L57.6562 109.943C58.2031 109.99 58.6667 110.146 59.0469 110.412C59.4271 110.673 59.7161 111.006 59.9141 111.412C60.1172 111.818 60.2188 112.266 60.2188 112.756C60.2188 113.464 60.0625 114.063 59.75 114.553C59.4427 115.037 59.0078 115.407 58.4453 115.662C57.8828 115.912 57.2214 116.037 56.4609 116.037ZM67.2109 114.592V110.24C67.2109 109.907 67.1432 109.618 67.0078 109.373C66.8776 109.123 66.6797 108.93 66.4141 108.795C66.1484 108.66 65.8203 108.592 65.4297 108.592C65.0651 108.592 64.7448 108.654 64.4688 108.779C64.1979 108.904 63.9844 109.068 63.8281 109.271C63.6771 109.475 63.6016 109.693 63.6016 109.928H62.1562C62.1562 109.626 62.2344 109.326 62.3906 109.029C62.5469 108.732 62.7708 108.464 63.0625 108.225C63.3594 107.98 63.7135 107.787 64.125 107.646C64.5417 107.501 65.0052 107.428 65.5156 107.428C66.1302 107.428 66.6719 107.532 67.1406 107.74C67.6146 107.949 67.9844 108.264 68.25 108.686C68.5208 109.102 68.6562 109.626 68.6562 110.256V114.193C68.6562 114.475 68.6797 114.774 68.7266 115.092C68.7786 115.41 68.8542 115.683 68.9531 115.912V116.037H67.4453C67.3724 115.87 67.3151 115.649 67.2734 115.373C67.2318 115.092 67.2109 114.831 67.2109 114.592ZM67.4609 110.912L67.4766 111.928H66.0156C65.6042 111.928 65.237 111.962 64.9141 112.029C64.5911 112.092 64.3203 112.188 64.1016 112.318C63.8828 112.449 63.7161 112.613 63.6016 112.811C63.487 113.003 63.4297 113.23 63.4297 113.49C63.4297 113.756 63.4896 113.998 63.6094 114.217C63.7292 114.436 63.9089 114.61 64.1484 114.74C64.3932 114.865 64.6927 114.928 65.0469 114.928C65.4896 114.928 65.8802 114.834 66.2188 114.646C66.5573 114.459 66.8255 114.23 67.0234 113.959C67.2266 113.688 67.3359 113.425 67.3516 113.17L67.9688 113.865C67.9323 114.084 67.8333 114.326 67.6719 114.592C67.5104 114.857 67.2943 115.113 67.0234 115.357C66.7578 115.597 66.4401 115.798 66.0703 115.959C65.7057 116.115 65.2943 116.193 64.8359 116.193C64.263 116.193 63.7604 116.081 63.3281 115.857C62.901 115.633 62.5677 115.334 62.3281 114.959C62.0938 114.579 61.9766 114.154 61.9766 113.686C61.9766 113.232 62.0651 112.834 62.2422 112.49C62.4193 112.141 62.6745 111.852 63.0078 111.623C63.3411 111.389 63.7422 111.212 64.2109 111.092C64.6797 110.972 65.2031 110.912 65.7812 110.912H67.4609ZM72.375 109.389V116.037H70.9297V107.584H72.2969L72.375 109.389ZM72.0312 111.49L71.4297 111.467C71.4349 110.889 71.5208 110.355 71.6875 109.865C71.8542 109.37 72.0885 108.941 72.3906 108.576C72.6927 108.212 73.0521 107.93 73.4688 107.732C73.8906 107.529 74.3568 107.428 74.8672 107.428C75.2839 107.428 75.6589 107.485 75.9922 107.6C76.3255 107.709 76.6094 107.886 76.8438 108.131C77.0833 108.376 77.2656 108.693 77.3906 109.084C77.5156 109.469 77.5781 109.941 77.5781 110.498V116.037H76.125V110.482C76.125 110.04 76.0599 109.686 75.9297 109.42C75.7995 109.149 75.6094 108.954 75.3594 108.834C75.1094 108.709 74.8021 108.646 74.4375 108.646C74.0781 108.646 73.75 108.722 73.4531 108.873C73.1615 109.024 72.9089 109.232 72.6953 109.498C72.487 109.764 72.3229 110.068 72.2031 110.412C72.0885 110.751 72.0312 111.11 72.0312 111.49ZM81.2266 104.037V116.037H79.7734V104.037H81.2266ZM86.3906 107.584L82.7031 111.529L80.6406 113.67L80.5234 112.131L82 110.365L84.625 107.584H86.3906ZM85.0703 116.037L82.0547 112.006L82.8047 110.717L86.7734 116.037H85.0703Z" fill="#6E6E6E"/>
</svg>
