<svg width="93" height="121" viewBox="0 0 93 121" fill="none" xmlns="http://www.w3.org/2000/svg">
<g opacity="0.2">
<rect y="0.0371094" width="93" height="93" rx="46.5" fill="white"/>
<rect x="0.93" y="0.967109" width="91.14" height="91.14" rx="45.57" stroke="#424242" stroke-opacity="0.3" stroke-width="1.86"/>
</g>
<g clip-path="url(#clip0_254_5519)">
<path d="M38.4273 35.7306C47.5798 26.6492 58.6438 24.3032 63.0571 30.5083C67.4694 36.7113 63.6068 49.1794 54.4526 58.2591C45.3038 67.3388 34.2388 69.6837 29.8255 63.4807C25.4132 57.2748 29.2766 44.8094 38.4273 35.7306Z" fill="#F58220"/>
<path d="M44.485 30.888C43.5001 31.6278 42.4526 32.4927 41.464 33.4814C33.4425 41.3868 30.1117 52.2567 34.0612 57.6908C38.1315 63.1275 48.002 61.1508 56.1454 53.1236C60.5264 48.8594 63.4884 43.8573 64.7211 39.2265C65.0918 35.83 64.5977 32.8019 63.0549 30.518C59.5397 25.6996 52.0124 26.0697 44.485 30.888Z" fill="#B02A30"/>
<path d="M49.0197 62.7395C44.7344 65.9591 40.3095 67.5557 35.9902 66.8869C37.8024 66.981 39.2674 64.9687 40.4671 62.2642C41.6857 59.4942 42.4164 56.9252 43.001 54.521C43.8507 50.7149 43.917 47.9942 43.4836 47.4115C42.7513 46.4425 41.0858 46.6935 39.201 47.7773C38.2977 48.2775 37.0987 47.9414 38.5161 46.2247C39.9523 44.4883 45.6531 40.3174 47.7044 39.6657C49.9562 39.0158 52.5223 39.9006 51.6538 42.3692C51.0378 44.1711 43.1505 64.8905 49.0197 62.7395ZM55.4735 30.603C56.539 31.6706 55.889 34.0085 54.0722 35.8426C52.2395 37.6623 49.8523 38.3131 48.8191 37.2614C47.7196 36.2101 48.3697 33.8399 50.2034 31.987C52.054 30.136 54.4385 29.5666 55.4735 30.603Z" fill="white"/>
</g>
<path d="M11.9375 104.662V116.037H10.4297V104.662H11.9375ZM21.5469 112.42H23.0469C22.9688 113.139 22.763 113.782 22.4297 114.35C22.0964 114.917 21.625 115.368 21.0156 115.701C20.4062 116.029 19.6458 116.193 18.7344 116.193C18.0677 116.193 17.4609 116.068 16.9141 115.818C16.3724 115.568 15.9062 115.214 15.5156 114.756C15.125 114.292 14.8229 113.738 14.6094 113.092C14.401 112.441 14.2969 111.717 14.2969 110.92V109.787C14.2969 108.99 14.401 108.269 14.6094 107.623C14.8229 106.972 15.1276 106.415 15.5234 105.951C15.9245 105.488 16.4062 105.131 16.9688 104.881C17.5312 104.631 18.1641 104.506 18.8672 104.506C19.7266 104.506 20.4531 104.667 21.0469 104.99C21.6406 105.313 22.1016 105.761 22.4297 106.334C22.763 106.902 22.9688 107.561 23.0469 108.311H21.5469C21.474 107.779 21.3385 107.324 21.1406 106.943C20.9427 106.558 20.6615 106.261 20.2969 106.053C19.9323 105.844 19.4557 105.74 18.8672 105.74C18.362 105.74 17.9167 105.837 17.5312 106.029C17.151 106.222 16.8307 106.495 16.5703 106.85C16.3151 107.204 16.1224 107.628 15.9922 108.123C15.862 108.618 15.7969 109.167 15.7969 109.771V110.92C15.7969 111.477 15.8542 112.001 15.9688 112.49C16.0885 112.98 16.2682 113.41 16.5078 113.779C16.7474 114.149 17.0521 114.441 17.4219 114.654C17.7917 114.863 18.2292 114.967 18.7344 114.967C19.375 114.967 19.8854 114.865 20.2656 114.662C20.6458 114.459 20.9323 114.167 21.125 113.787C21.3229 113.407 21.4635 112.951 21.5469 112.42ZM26.7188 104.662V116.037H25.2109V104.662H26.7188ZM36.3281 112.42H37.8281C37.75 113.139 37.5443 113.782 37.2109 114.35C36.8776 114.917 36.4062 115.368 35.7969 115.701C35.1875 116.029 34.4271 116.193 33.5156 116.193C32.849 116.193 32.2422 116.068 31.6953 115.818C31.1536 115.568 30.6875 115.214 30.2969 114.756C29.9062 114.292 29.6042 113.738 29.3906 113.092C29.1823 112.441 29.0781 111.717 29.0781 110.92V109.787C29.0781 108.99 29.1823 108.269 29.3906 107.623C29.6042 106.972 29.9089 106.415 30.3047 105.951C30.7057 105.488 31.1875 105.131 31.75 104.881C32.3125 104.631 32.9453 104.506 33.6484 104.506C34.5078 104.506 35.2344 104.667 35.8281 104.99C36.4219 105.313 36.8828 105.761 37.2109 106.334C37.5443 106.902 37.75 107.561 37.8281 108.311H36.3281C36.2552 107.779 36.1198 107.324 35.9219 106.943C35.724 106.558 35.4427 106.261 35.0781 106.053C34.7135 105.844 34.237 105.74 33.6484 105.74C33.1432 105.74 32.6979 105.837 32.3125 106.029C31.9323 106.222 31.612 106.495 31.3516 106.85C31.0964 107.204 30.9036 107.628 30.7734 108.123C30.6432 108.618 30.5781 109.167 30.5781 109.771V110.92C30.5781 111.477 30.6354 112.001 30.75 112.49C30.8698 112.98 31.0495 113.41 31.2891 113.779C31.5286 114.149 31.8333 114.441 32.2031 114.654C32.5729 114.863 33.0104 114.967 33.5156 114.967C34.1562 114.967 34.6667 114.865 35.0469 114.662C35.4271 114.459 35.7135 114.167 35.9062 113.787C36.1042 113.407 36.2448 112.951 36.3281 112.42ZM41.5 104.662V116.037H39.9922V104.662H41.5ZM52.2656 110.717H49.3828L49.3672 109.506H51.9844C52.4167 109.506 52.7943 109.433 53.1172 109.287C53.4401 109.141 53.6901 108.933 53.8672 108.662C54.0495 108.386 54.1406 108.058 54.1406 107.678C54.1406 107.261 54.0599 106.923 53.8984 106.662C53.7422 106.396 53.5 106.204 53.1719 106.084C52.849 105.959 52.4375 105.896 51.9375 105.896H49.7188V116.037H48.2109V104.662H51.9375C52.5208 104.662 53.0417 104.722 53.5 104.842C53.9583 104.956 54.3464 105.139 54.6641 105.389C54.987 105.633 55.2318 105.946 55.3984 106.326C55.5651 106.706 55.6484 107.162 55.6484 107.693C55.6484 108.162 55.5286 108.587 55.2891 108.967C55.0495 109.342 54.7161 109.649 54.2891 109.889C53.8672 110.128 53.3724 110.282 52.8047 110.35L52.2656 110.717ZM52.1953 116.037H48.7891L49.6406 114.811H52.1953C52.6745 114.811 53.0807 114.727 53.4141 114.561C53.7526 114.394 54.0104 114.16 54.1875 113.857C54.3646 113.55 54.4531 113.188 54.4531 112.771C54.4531 112.35 54.3776 111.985 54.2266 111.678C54.0755 111.37 53.8385 111.133 53.5156 110.967C53.1927 110.8 52.776 110.717 52.2656 110.717H50.1172L50.1328 109.506H53.0703L53.3906 109.943C53.9375 109.99 54.401 110.146 54.7812 110.412C55.1615 110.673 55.4505 111.006 55.6484 111.412C55.8516 111.818 55.9531 112.266 55.9531 112.756C55.9531 113.464 55.7969 114.063 55.4844 114.553C55.1771 115.037 54.7422 115.407 54.1797 115.662C53.6172 115.912 52.9557 116.037 52.1953 116.037ZM62.9453 114.592V110.24C62.9453 109.907 62.8776 109.618 62.7422 109.373C62.612 109.123 62.4141 108.93 62.1484 108.795C61.8828 108.66 61.5547 108.592 61.1641 108.592C60.7995 108.592 60.4792 108.654 60.2031 108.779C59.9323 108.904 59.7188 109.068 59.5625 109.271C59.4115 109.475 59.3359 109.693 59.3359 109.928H57.8906C57.8906 109.626 57.9688 109.326 58.125 109.029C58.2812 108.732 58.5052 108.464 58.7969 108.225C59.0938 107.98 59.4479 107.787 59.8594 107.646C60.276 107.501 60.7396 107.428 61.25 107.428C61.8646 107.428 62.4062 107.532 62.875 107.74C63.349 107.949 63.7188 108.264 63.9844 108.686C64.2552 109.102 64.3906 109.626 64.3906 110.256V114.193C64.3906 114.475 64.4141 114.774 64.4609 115.092C64.513 115.41 64.5885 115.683 64.6875 115.912V116.037H63.1797C63.1068 115.87 63.0495 115.649 63.0078 115.373C62.9661 115.092 62.9453 114.831 62.9453 114.592ZM63.1953 110.912L63.2109 111.928H61.75C61.3385 111.928 60.9714 111.962 60.6484 112.029C60.3255 112.092 60.0547 112.188 59.8359 112.318C59.6172 112.449 59.4505 112.613 59.3359 112.811C59.2214 113.003 59.1641 113.23 59.1641 113.49C59.1641 113.756 59.224 113.998 59.3438 114.217C59.4635 114.436 59.6432 114.61 59.8828 114.74C60.1276 114.865 60.4271 114.928 60.7812 114.928C61.224 114.928 61.6146 114.834 61.9531 114.646C62.2917 114.459 62.5599 114.23 62.7578 113.959C62.9609 113.688 63.0703 113.425 63.0859 113.17L63.7031 113.865C63.6667 114.084 63.5677 114.326 63.4062 114.592C63.2448 114.857 63.0286 115.113 62.7578 115.357C62.4922 115.597 62.1745 115.798 61.8047 115.959C61.4401 116.115 61.0286 116.193 60.5703 116.193C59.9974 116.193 59.4948 116.081 59.0625 115.857C58.6354 115.633 58.3021 115.334 58.0625 114.959C57.8281 114.579 57.7109 114.154 57.7109 113.686C57.7109 113.232 57.7995 112.834 57.9766 112.49C58.1536 112.141 58.4089 111.852 58.7422 111.623C59.0755 111.389 59.4766 111.212 59.9453 111.092C60.4141 110.972 60.9375 110.912 61.5156 110.912H63.1953ZM68.1094 109.389V116.037H66.6641V107.584H68.0312L68.1094 109.389ZM67.7656 111.49L67.1641 111.467C67.1693 110.889 67.2552 110.355 67.4219 109.865C67.5885 109.37 67.8229 108.941 68.125 108.576C68.4271 108.212 68.7865 107.93 69.2031 107.732C69.625 107.529 70.0911 107.428 70.6016 107.428C71.0182 107.428 71.3932 107.485 71.7266 107.6C72.0599 107.709 72.3438 107.886 72.5781 108.131C72.8177 108.376 73 108.693 73.125 109.084C73.25 109.469 73.3125 109.941 73.3125 110.498V116.037H71.8594V110.482C71.8594 110.04 71.7943 109.686 71.6641 109.42C71.5339 109.149 71.3438 108.954 71.0938 108.834C70.8438 108.709 70.5365 108.646 70.1719 108.646C69.8125 108.646 69.4844 108.722 69.1875 108.873C68.8958 109.024 68.6432 109.232 68.4297 109.498C68.2214 109.764 68.0573 110.068 67.9375 110.412C67.8229 110.751 67.7656 111.11 67.7656 111.49ZM76.9609 104.037V116.037H75.5078V104.037H76.9609ZM82.125 107.584L78.4375 111.529L76.375 113.67L76.2578 112.131L77.7344 110.365L80.3594 107.584H82.125ZM80.8047 116.037L77.7891 112.006L78.5391 110.717L82.5078 116.037H80.8047Z" fill="#6E6E6E"/>
<defs>
<clipPath id="clip0_254_5519">
<rect width="36.8831" height="40" fill="white" transform="translate(28 27.0371)"/>
</clipPath>
</defs>
</svg>
