<svg width="93" height="121" viewBox="0 0 93 121" fill="none" xmlns="http://www.w3.org/2000/svg">
<g opacity="0.2">
<rect y="0.0371094" width="93" height="93" rx="46.5" fill="white"/>
<rect x="0.93" y="0.967109" width="91.14" height="91.14" rx="45.57" stroke="#424242" stroke-opacity="0.3" stroke-width="1.86"/>
</g>
<path d="M67 47.0946C67 58.1094 58.0485 67.0371 46.9984 67.0371C35.9547 67.0371 27 58.1094 27 47.0946C27 36.0884 35.9547 27.1564 46.9984 27.1564C58.0485 27.1564 67 36.0884 67 47.0946Z" fill="white"/>
<path d="M46.8537 62.0193C48.7351 62.0226 50.6261 61.5138 52.2148 60.4995C53.1766 59.9436 54.0343 59.1989 54.7374 58.341C55.2046 57.8412 55.541 57.2502 55.901 56.673C56.4981 55.5175 56.9403 54.2702 57.0615 52.9687C57.2354 51.5168 57.0958 50.0293 56.6747 48.6312C56.3661 47.5686 55.8771 46.5623 55.2604 45.6436C54.4116 44.3948 53.3161 43.2908 52.0062 42.532C51.7113 42.3483 51.458 42.1633 51.1598 41.9822C50.721 41.6795 50.0115 41.2999 49.4908 41.7043C48.9616 42.2236 48.9864 43.0416 48.9405 43.7391C48.9373 48.676 48.9142 53.6123 48.9244 58.5496C48.8936 58.964 49.0224 59.4665 48.596 59.7091C48.1549 59.9759 47.6599 60.1499 47.1444 60.2308C46.7217 60.3515 46.3226 60.1687 45.9104 60.0912C45.5584 59.9695 45.1746 59.8173 44.9176 59.5727C44.5446 59.2449 44.7687 58.6664 44.7076 58.207C44.7012 53.1572 44.7206 48.1063 44.6979 43.0572C44.624 42.5151 44.5644 41.852 44.0564 41.5283C43.8214 41.4089 43.5597 41.4252 43.3188 41.5261C42.7427 41.6941 42.2532 42.18 41.7649 42.4686C40.9155 42.9669 40.1323 43.5841 39.4721 44.3211C38.8888 44.9083 38.4263 45.598 37.9994 46.3067C37.39 47.4126 36.9255 48.6023 36.7151 49.8499C36.5018 51.0024 36.4802 52.1867 36.662 53.347C36.9361 55.1133 37.7021 56.7981 38.8155 58.1945C39.9171 59.5932 41.4315 60.6197 43.0636 61.3151C44.2733 61.7607 45.5585 62.0356 46.854 62.0193H46.8537Z" fill="#F58220"/>
<path d="M46.8923 38.8903C47.0311 38.8849 47.1747 38.9054 47.3084 38.871C47.3932 38.8656 47.469 38.8026 47.5588 38.8183C47.6163 38.7722 47.6808 38.7244 47.7546 38.7217C47.8221 38.6801 47.9273 38.6952 47.9615 38.6047C48.0357 38.5788 48.0963 38.5364 48.1635 38.499C48.2279 38.4677 48.2754 38.4004 48.3364 38.3586C48.4308 38.3185 48.4614 38.2113 48.5521 38.1656C48.5984 38.1081 48.6392 38.0468 48.6981 37.9981C48.7561 37.9129 48.8155 37.8307 48.8499 37.7319C48.9091 37.6862 48.9194 37.6052 48.9596 37.5435C48.9909 37.4748 49.032 37.4143 49.0473 37.341C49.0778 37.2773 49.1065 37.2122 49.0975 37.1393C49.1311 37.0509 49.1072 36.9485 49.1697 36.8687C49.1654 36.6647 49.1783 36.4561 49.1633 36.2551C49.0967 36.1708 49.1296 36.0604 49.0977 35.9645C49.088 35.8947 49.0739 35.82 49.031 35.7631C48.9799 35.5654 48.8496 35.4026 48.758 35.2243C48.7129 35.1646 48.6893 35.1023 48.6236 35.0618C48.5609 34.9742 48.4668 34.9154 48.4171 34.8182C48.3268 34.8128 48.2814 34.7201 48.2117 34.6758C48.1632 34.6248 48.0868 34.603 48.0332 34.5612C47.9685 34.5349 47.9364 34.4671 47.8554 34.4698C47.741 34.4216 47.6304 34.3502 47.504 34.3275C47.4347 34.2944 47.377 34.2481 47.2944 34.2685C47.204 34.2663 47.1158 34.2468 47.0248 34.2468C46.8689 34.2282 46.7107 34.2489 46.5559 34.2554C46.4614 34.2904 46.3477 34.2352 46.2655 34.3108C46.166 34.3591 46.054 34.3642 45.9587 34.4204C45.897 34.4679 45.8107 34.464 45.7628 34.5278C45.6794 34.5432 45.6218 34.6126 45.5424 34.6405C45.476 34.695 45.4048 34.758 45.3448 34.8124C45.2597 34.8017 45.2455 34.9101 45.1856 34.954C45.1222 34.999 45.1075 35.0744 45.0478 35.1193C44.9351 35.2455 44.8378 35.3905 44.7724 35.5475C44.7616 35.6226 44.6942 35.6655 44.6912 35.7435C44.6565 35.8165 44.6244 35.8785 44.6088 35.9552C44.5903 36.0338 44.6131 36.1248 44.5556 36.195C44.5642 36.3808 44.5188 36.5671 44.5556 36.7513C44.5524 36.8499 44.5481 36.9489 44.5987 37.0378C44.5874 37.1599 44.6401 37.2696 44.6913 37.3758C44.6837 37.4615 44.759 37.4921 44.7705 37.5669C44.7979 37.6309 44.8155 37.6996 44.8603 37.7557C44.899 37.8844 45.01 37.9636 45.0895 38.0645C45.1414 38.1106 45.156 38.1918 45.2265 38.2241C45.2763 38.2783 45.314 38.3427 45.3891 38.369C45.4324 38.4385 45.5245 38.4544 45.5745 38.5216C45.6537 38.5935 45.7769 38.5814 45.8399 38.6752C45.8955 38.7142 45.9817 38.7063 46.0331 38.7409C46.0894 38.7711 46.1631 38.7895 46.223 38.8177C46.3093 38.8242 46.3785 38.885 46.4659 38.8704C46.6006 38.912 46.7519 38.879 46.8923 38.8897L46.8923 38.8903Z" fill="#F58220"/>
<path d="M51.9183 34.751C52.1761 34.1857 52.858 33.7537 53.4376 34.1852C54.5851 34.9145 55.4548 36.0203 56.4486 36.9457C57.7446 38.2002 58.9244 39.6031 59.7341 41.2241C60.5763 42.8839 61.0724 44.7109 61.1336 46.5731C61.3301 48.4536 61.0131 50.382 60.4508 52.1792C59.2946 55.5596 56.9065 58.555 53.7402 60.2653C49.3602 62.732 43.6863 62.5678 39.4127 59.9532C35.3448 57.5326 32.7057 52.9684 32.4981 48.265C32.389 46.1039 32.7319 43.9179 33.6029 41.9267C34.4441 39.9361 35.846 38.2298 37.4105 36.7505C38.297 35.8616 39.1164 34.8811 40.1682 34.1938C40.6148 33.8519 41.3327 33.9159 41.5713 34.4558C42.0994 35.2897 42.4638 36.3243 42.4338 37.3383C42.3031 39.0084 40.8361 40.0324 39.6653 41.0249C38.2777 42.1645 37.3095 43.7162 36.5071 45.3063C35.782 46.8567 35.4008 48.555 35.4561 50.2933C35.4658 54.0176 37.308 57.71 40.3308 59.9154C42.313 61.2992 44.7137 62.0988 47.148 62.0195C50.476 61.9773 53.6633 60.2562 55.6677 57.6393C57.4604 55.3336 58.3736 52.3643 58.1831 49.4488C58.1036 47.6706 57.5471 45.9456 56.7186 44.4024C55.9476 43.0146 54.9009 41.7638 53.6682 40.7666C52.7482 39.9132 51.6235 39.1088 51.3271 37.8289C51.1047 36.7752 51.4671 35.6979 51.9183 34.751Z" fill="#F58220"/>
<path d="M14.9375 104.662V116.037H13.4297V104.662H14.9375ZM20.7578 116.037H18.3828L18.3984 114.811H20.7578C21.5703 114.811 22.2474 114.641 22.7891 114.303C23.3307 113.959 23.737 113.48 24.0078 112.865C24.2839 112.245 24.4219 111.521 24.4219 110.693V109.998C24.4219 109.347 24.3438 108.769 24.1875 108.264C24.0312 107.753 23.8021 107.324 23.5 106.975C23.1979 106.62 22.8281 106.352 22.3906 106.17C21.9583 105.988 21.4609 105.896 20.8984 105.896H18.3359V104.662H20.8984C21.6432 104.662 22.3229 104.787 22.9375 105.037C23.5521 105.282 24.0807 105.639 24.5234 106.107C24.9714 106.571 25.3151 107.133 25.5547 107.795C25.7943 108.451 25.9141 109.191 25.9141 110.014V110.693C25.9141 111.516 25.7943 112.258 25.5547 112.92C25.3151 113.576 24.9688 114.136 24.5156 114.6C24.0677 115.063 23.526 115.42 22.8906 115.67C22.2604 115.915 21.5495 116.037 20.7578 116.037ZM19.1875 104.662V116.037H17.6797V104.662H19.1875ZM32.2344 110.717H29.3516L29.3359 109.506H31.9531C32.3854 109.506 32.763 109.433 33.0859 109.287C33.4089 109.141 33.6589 108.933 33.8359 108.662C34.0182 108.386 34.1094 108.058 34.1094 107.678C34.1094 107.261 34.0286 106.923 33.8672 106.662C33.7109 106.396 33.4688 106.204 33.1406 106.084C32.8177 105.959 32.4062 105.896 31.9062 105.896H29.6875V116.037H28.1797V104.662H31.9062C32.4896 104.662 33.0104 104.722 33.4688 104.842C33.9271 104.956 34.3151 105.139 34.6328 105.389C34.9557 105.633 35.2005 105.946 35.3672 106.326C35.5339 106.706 35.6172 107.162 35.6172 107.693C35.6172 108.162 35.4974 108.587 35.2578 108.967C35.0182 109.342 34.6849 109.649 34.2578 109.889C33.8359 110.128 33.3411 110.282 32.7734 110.35L32.2344 110.717ZM32.1641 116.037H28.7578L29.6094 114.811H32.1641C32.6432 114.811 33.0495 114.727 33.3828 114.561C33.7214 114.394 33.9792 114.16 34.1562 113.857C34.3333 113.55 34.4219 113.188 34.4219 112.771C34.4219 112.35 34.3464 111.985 34.1953 111.678C34.0443 111.37 33.8073 111.133 33.4844 110.967C33.1615 110.8 32.7448 110.717 32.2344 110.717H30.0859L30.1016 109.506H33.0391L33.3594 109.943C33.9062 109.99 34.3698 110.146 34.75 110.412C35.1302 110.673 35.4193 111.006 35.6172 111.412C35.8203 111.818 35.9219 112.266 35.9219 112.756C35.9219 113.464 35.7656 114.063 35.4531 114.553C35.1458 115.037 34.7109 115.407 34.1484 115.662C33.5859 115.912 32.9245 116.037 32.1641 116.037ZM39.7656 104.662V116.037H38.2578V104.662H39.7656ZM50.5312 110.717H47.6484L47.6328 109.506H50.25C50.6823 109.506 51.0599 109.433 51.3828 109.287C51.7057 109.141 51.9557 108.933 52.1328 108.662C52.3151 108.386 52.4062 108.058 52.4062 107.678C52.4062 107.261 52.3255 106.923 52.1641 106.662C52.0078 106.396 51.7656 106.204 51.4375 106.084C51.1146 105.959 50.7031 105.896 50.2031 105.896H47.9844V116.037H46.4766V104.662H50.2031C50.7865 104.662 51.3073 104.722 51.7656 104.842C52.224 104.956 52.612 105.139 52.9297 105.389C53.2526 105.633 53.4974 105.946 53.6641 106.326C53.8307 106.706 53.9141 107.162 53.9141 107.693C53.9141 108.162 53.7943 108.587 53.5547 108.967C53.3151 109.342 52.9818 109.649 52.5547 109.889C52.1328 110.128 51.638 110.282 51.0703 110.35L50.5312 110.717ZM50.4609 116.037H47.0547L47.9062 114.811H50.4609C50.9401 114.811 51.3464 114.727 51.6797 114.561C52.0182 114.394 52.276 114.16 52.4531 113.857C52.6302 113.55 52.7188 113.188 52.7188 112.771C52.7188 112.35 52.6432 111.985 52.4922 111.678C52.3411 111.37 52.1042 111.133 51.7812 110.967C51.4583 110.8 51.0417 110.717 50.5312 110.717H48.3828L48.3984 109.506H51.3359L51.6562 109.943C52.2031 109.99 52.6667 110.146 53.0469 110.412C53.4271 110.673 53.7161 111.006 53.9141 111.412C54.1172 111.818 54.2188 112.266 54.2188 112.756C54.2188 113.464 54.0625 114.063 53.75 114.553C53.4427 115.037 53.0078 115.407 52.4453 115.662C51.8828 115.912 51.2214 116.037 50.4609 116.037ZM61.2109 114.592V110.24C61.2109 109.907 61.1432 109.618 61.0078 109.373C60.8776 109.123 60.6797 108.93 60.4141 108.795C60.1484 108.66 59.8203 108.592 59.4297 108.592C59.0651 108.592 58.7448 108.654 58.4688 108.779C58.1979 108.904 57.9844 109.068 57.8281 109.271C57.6771 109.475 57.6016 109.693 57.6016 109.928H56.1562C56.1562 109.626 56.2344 109.326 56.3906 109.029C56.5469 108.732 56.7708 108.464 57.0625 108.225C57.3594 107.98 57.7135 107.787 58.125 107.646C58.5417 107.501 59.0052 107.428 59.5156 107.428C60.1302 107.428 60.6719 107.532 61.1406 107.74C61.6146 107.949 61.9844 108.264 62.25 108.686C62.5208 109.102 62.6562 109.626 62.6562 110.256V114.193C62.6562 114.475 62.6797 114.774 62.7266 115.092C62.7786 115.41 62.8542 115.683 62.9531 115.912V116.037H61.4453C61.3724 115.87 61.3151 115.649 61.2734 115.373C61.2318 115.092 61.2109 114.831 61.2109 114.592ZM61.4609 110.912L61.4766 111.928H60.0156C59.6042 111.928 59.237 111.962 58.9141 112.029C58.5911 112.092 58.3203 112.188 58.1016 112.318C57.8828 112.449 57.7161 112.613 57.6016 112.811C57.487 113.003 57.4297 113.23 57.4297 113.49C57.4297 113.756 57.4896 113.998 57.6094 114.217C57.7292 114.436 57.9089 114.61 58.1484 114.74C58.3932 114.865 58.6927 114.928 59.0469 114.928C59.4896 114.928 59.8802 114.834 60.2188 114.646C60.5573 114.459 60.8255 114.23 61.0234 113.959C61.2266 113.688 61.3359 113.425 61.3516 113.17L61.9688 113.865C61.9323 114.084 61.8333 114.326 61.6719 114.592C61.5104 114.857 61.2943 115.113 61.0234 115.357C60.7578 115.597 60.4401 115.798 60.0703 115.959C59.7057 116.115 59.2943 116.193 58.8359 116.193C58.263 116.193 57.7604 116.081 57.3281 115.857C56.901 115.633 56.5677 115.334 56.3281 114.959C56.0938 114.579 55.9766 114.154 55.9766 113.686C55.9766 113.232 56.0651 112.834 56.2422 112.49C56.4193 112.141 56.6745 111.852 57.0078 111.623C57.3411 111.389 57.7422 111.212 58.2109 111.092C58.6797 110.972 59.2031 110.912 59.7812 110.912H61.4609ZM66.375 109.389V116.037H64.9297V107.584H66.2969L66.375 109.389ZM66.0312 111.49L65.4297 111.467C65.4349 110.889 65.5208 110.355 65.6875 109.865C65.8542 109.37 66.0885 108.941 66.3906 108.576C66.6927 108.212 67.0521 107.93 67.4688 107.732C67.8906 107.529 68.3568 107.428 68.8672 107.428C69.2839 107.428 69.6589 107.485 69.9922 107.6C70.3255 107.709 70.6094 107.886 70.8438 108.131C71.0833 108.376 71.2656 108.693 71.3906 109.084C71.5156 109.469 71.5781 109.941 71.5781 110.498V116.037H70.125V110.482C70.125 110.04 70.0599 109.686 69.9297 109.42C69.7995 109.149 69.6094 108.954 69.3594 108.834C69.1094 108.709 68.8021 108.646 68.4375 108.646C68.0781 108.646 67.75 108.722 67.4531 108.873C67.1615 109.024 66.9089 109.232 66.6953 109.498C66.487 109.764 66.3229 110.068 66.2031 110.412C66.0885 110.751 66.0312 111.11 66.0312 111.49ZM75.2266 104.037V116.037H73.7734V104.037H75.2266ZM80.3906 107.584L76.7031 111.529L74.6406 113.67L74.5234 112.131L76 110.365L78.625 107.584H80.3906ZM79.0703 116.037L76.0547 112.006L76.8047 110.717L80.7734 116.037H79.0703Z" fill="#6E6E6E"/>
</svg>
