<svg width="93" height="121" viewBox="0 0 93 121" fill="none" xmlns="http://www.w3.org/2000/svg">
<g opacity="0.2">
<rect y="0.0371094" width="93" height="93" rx="46.5" fill="white"/>
<rect x="0.93" y="0.967109" width="91.14" height="91.14" rx="45.57" stroke="#424242" stroke-opacity="0.3" stroke-width="1.86"/>
</g>
<g clip-path="url(#clip0_249_5201)">
<path fill-rule="evenodd" clip-rule="evenodd" d="M27.2539 46.1404C27.2539 36.6952 36.1568 29.0371 47.1403 29.0371C58.1238 29.0371 67.0259 36.6952 67.0259 46.1404C67.0259 55.5856 58.123 63.2437 47.1403 63.2437C36.1575 63.2437 27.2539 55.5868 27.2539 46.1404Z" fill="#003874"/>
<path fill-rule="evenodd" clip-rule="evenodd" d="M44.7253 34.53L49.3455 33.0034L49.3682 57.9791L44.709 59.5402L44.7257 34.53M92.7845 56.0274C97.2246 56.0274 100.606 53.4454 100.606 49.0019C100.606 44.5342 97.2246 41.9476 92.7845 41.9476C88.3472 41.9476 84.9653 44.5266 84.9653 49.0019C84.9653 53.4458 88.3468 56.0274 92.7845 56.0274ZM92.7845 52.7741C90.6432 52.7741 89.7667 50.9916 89.7667 49.0019C89.7667 46.9861 90.639 45.2093 92.7845 45.2093C94.93 45.2093 95.8046 46.9896 95.8046 49.0019C95.8046 50.9916 94.9323 52.7741 92.7845 52.7741ZM100.179 45.515H102.834V50.9916C102.834 54.1925 103.841 56.0274 107.995 56.0274C109.156 56.0274 110.035 55.8757 110.915 55.7695L110.763 52.7483C110.299 52.8253 109.809 52.9285 109.345 52.9285C107.873 52.9285 107.485 52.1017 107.485 50.4746V45.515H110.737V42.2609H107.485L107.484 37.6073L102.918 39.2381V42.2609H100.182V45.515M126.996 55.7183H131.642V49.0547H131.693L135.411 55.7183H141.033L135.974 48.4346L140.645 42.2616H135.561L131.69 47.918H131.639V37.6248L126.993 39.2393V55.7221" fill="#ED1C24"/>
<path fill-rule="evenodd" clip-rule="evenodd" d="M62.0963 47.8622C61.6628 51.4349 59.6587 55.0443 55.2828 55.0512C52.728 55.0557 50.7324 53.3066 49.3503 51.1664V48.6875C51.0798 49.5461 52.6962 50.4678 54.6574 50.4958C57.0733 50.5315 59.2578 49.6027 60.1612 47.8618H62.0966L62.0963 47.8622ZM47.468 50.1056C45.4606 52.5253 43.5206 54.9969 39.8858 54.9969C34.7517 54.9969 32.3164 50.0331 32.3164 45.8832C32.3164 41.8956 34.2196 37.1753 39.2213 37.1753C41.3907 37.1753 43.4789 38.502 44.7237 39.9052L44.7199 43.2902C43.6799 42.5901 41.3505 41.9032 39.8296 41.8786C36.6578 41.8255 33.8615 43.2003 33.9101 46.3311C33.9431 48.4865 36.0787 49.9516 38.2034 49.9516C41.4574 49.9516 43.4289 46.9789 45.0764 44.7227C45.7369 43.8614 46.3899 42.9944 47.0353 42.1217C48.8652 39.5647 50.9827 37.2303 54.6175 37.2303C58.8994 37.2303 61.3032 40.6816 61.9829 44.2345H60.0486C59.2711 43.0823 57.7757 42.3773 56.3026 42.3773C52.9385 42.3773 50.9284 45.4721 49.246 47.7507L47.4635 50.1052" fill="white"/>
</g>
<path d="M8.82812 104.662V116.037H7.32031V104.662H8.82812ZM15.6953 104.662L10.9688 109.967L8.3125 112.725L8.0625 111.115L10.0625 108.912L13.8828 104.662H15.6953ZM14.2422 116.037L10.0312 110.49L10.9297 109.295L16.0391 116.037H14.2422ZM16.5469 111.904V111.725C16.5469 111.115 16.6354 110.55 16.8125 110.029C16.9896 109.503 17.2448 109.048 17.5781 108.662C17.9115 108.271 18.3151 107.969 18.7891 107.756C19.263 107.537 19.7943 107.428 20.3828 107.428C20.9766 107.428 21.5104 107.537 21.9844 107.756C22.4635 107.969 22.8698 108.271 23.2031 108.662C23.5417 109.048 23.7995 109.503 23.9766 110.029C24.1536 110.55 24.2422 111.115 24.2422 111.725V111.904C24.2422 112.514 24.1536 113.079 23.9766 113.6C23.7995 114.12 23.5417 114.576 23.2031 114.967C22.8698 115.352 22.4661 115.654 21.9922 115.873C21.5234 116.087 20.9922 116.193 20.3984 116.193C19.8047 116.193 19.2708 116.087 18.7969 115.873C18.3229 115.654 17.9167 115.352 17.5781 114.967C17.2448 114.576 16.9896 114.12 16.8125 113.6C16.6354 113.079 16.5469 112.514 16.5469 111.904ZM17.9922 111.725V111.904C17.9922 112.326 18.0417 112.725 18.1406 113.1C18.2396 113.469 18.388 113.798 18.5859 114.084C18.7891 114.37 19.0417 114.597 19.3438 114.764C19.6458 114.925 19.9974 115.006 20.3984 115.006C20.7943 115.006 21.1406 114.925 21.4375 114.764C21.7396 114.597 21.9896 114.37 22.1875 114.084C22.3854 113.798 22.5339 113.469 22.6328 113.1C22.737 112.725 22.7891 112.326 22.7891 111.904V111.725C22.7891 111.308 22.737 110.915 22.6328 110.545C22.5339 110.17 22.3828 109.839 22.1797 109.553C21.9818 109.261 21.7318 109.032 21.4297 108.865C21.1328 108.699 20.7839 108.615 20.3828 108.615C19.987 108.615 19.638 108.699 19.3359 108.865C19.0391 109.032 18.7891 109.261 18.5859 109.553C18.388 109.839 18.2396 110.17 18.1406 110.545C18.0417 110.915 17.9922 111.308 17.9922 111.725ZM29.5938 107.584V108.693H25.0234V107.584H29.5938ZM26.5703 105.529H28.0156V113.943C28.0156 114.23 28.0599 114.446 28.1484 114.592C28.237 114.738 28.3516 114.834 28.4922 114.881C28.6328 114.928 28.7839 114.951 28.9453 114.951C29.0651 114.951 29.1901 114.941 29.3203 114.92C29.4557 114.894 29.5573 114.873 29.625 114.857L29.6328 116.037C29.5182 116.074 29.3672 116.107 29.1797 116.139C28.9974 116.175 28.776 116.193 28.5156 116.193C28.1615 116.193 27.8359 116.123 27.5391 115.982C27.2422 115.842 27.0052 115.607 26.8281 115.279C26.6562 114.946 26.5703 114.498 26.5703 113.936V105.529ZM36.2734 114.592V110.24C36.2734 109.907 36.2057 109.618 36.0703 109.373C35.9401 109.123 35.7422 108.93 35.4766 108.795C35.2109 108.66 34.8828 108.592 34.4922 108.592C34.1276 108.592 33.8073 108.654 33.5312 108.779C33.2604 108.904 33.0469 109.068 32.8906 109.271C32.7396 109.475 32.6641 109.693 32.6641 109.928H31.2188C31.2188 109.626 31.2969 109.326 31.4531 109.029C31.6094 108.732 31.8333 108.464 32.125 108.225C32.4219 107.98 32.776 107.787 33.1875 107.646C33.6042 107.501 34.0677 107.428 34.5781 107.428C35.1927 107.428 35.7344 107.532 36.2031 107.74C36.6771 107.949 37.0469 108.264 37.3125 108.686C37.5833 109.102 37.7188 109.626 37.7188 110.256V114.193C37.7188 114.475 37.7422 114.774 37.7891 115.092C37.8411 115.41 37.9167 115.683 38.0156 115.912V116.037H36.5078C36.4349 115.87 36.3776 115.649 36.3359 115.373C36.2943 115.092 36.2734 114.831 36.2734 114.592ZM36.5234 110.912L36.5391 111.928H35.0781C34.6667 111.928 34.2995 111.962 33.9766 112.029C33.6536 112.092 33.3828 112.188 33.1641 112.318C32.9453 112.449 32.7786 112.613 32.6641 112.811C32.5495 113.003 32.4922 113.23 32.4922 113.49C32.4922 113.756 32.5521 113.998 32.6719 114.217C32.7917 114.436 32.9714 114.61 33.2109 114.74C33.4557 114.865 33.7552 114.928 34.1094 114.928C34.5521 114.928 34.9427 114.834 35.2812 114.646C35.6198 114.459 35.888 114.23 36.0859 113.959C36.2891 113.688 36.3984 113.425 36.4141 113.17L37.0312 113.865C36.9948 114.084 36.8958 114.326 36.7344 114.592C36.5729 114.857 36.3568 115.113 36.0859 115.357C35.8203 115.597 35.5026 115.798 35.1328 115.959C34.7682 116.115 34.3568 116.193 33.8984 116.193C33.3255 116.193 32.8229 116.081 32.3906 115.857C31.9635 115.633 31.6302 115.334 31.3906 114.959C31.1562 114.579 31.0391 114.154 31.0391 113.686C31.0391 113.232 31.1276 112.834 31.3047 112.49C31.4818 112.141 31.737 111.852 32.0703 111.623C32.4036 111.389 32.8047 111.212 33.2734 111.092C33.7422 110.972 34.2656 110.912 34.8438 110.912H36.5234ZM41.4453 104.037V116.037H39.9922V104.037H41.4453ZM46.6094 107.584L42.9219 111.529L40.8594 113.67L40.7422 112.131L42.2188 110.365L44.8438 107.584H46.6094ZM45.2891 116.037L42.2734 112.006L43.0234 110.717L46.9922 116.037H45.2891ZM56.3438 110.717H53.4609L53.4453 109.506H56.0625C56.4948 109.506 56.8724 109.433 57.1953 109.287C57.5182 109.141 57.7682 108.933 57.9453 108.662C58.1276 108.386 58.2188 108.058 58.2188 107.678C58.2188 107.261 58.138 106.923 57.9766 106.662C57.8203 106.396 57.5781 106.204 57.25 106.084C56.9271 105.959 56.5156 105.896 56.0156 105.896H53.7969V116.037H52.2891V104.662H56.0156C56.599 104.662 57.1198 104.722 57.5781 104.842C58.0365 104.956 58.4245 105.139 58.7422 105.389C59.0651 105.633 59.3099 105.946 59.4766 106.326C59.6432 106.706 59.7266 107.162 59.7266 107.693C59.7266 108.162 59.6068 108.587 59.3672 108.967C59.1276 109.342 58.7943 109.649 58.3672 109.889C57.9453 110.128 57.4505 110.282 56.8828 110.35L56.3438 110.717ZM56.2734 116.037H52.8672L53.7188 114.811H56.2734C56.7526 114.811 57.1589 114.727 57.4922 114.561C57.8307 114.394 58.0885 114.16 58.2656 113.857C58.4427 113.55 58.5312 113.188 58.5312 112.771C58.5312 112.35 58.4557 111.985 58.3047 111.678C58.1536 111.37 57.9167 111.133 57.5938 110.967C57.2708 110.8 56.8542 110.717 56.3438 110.717H54.1953L54.2109 109.506H57.1484L57.4688 109.943C58.0156 109.99 58.4792 110.146 58.8594 110.412C59.2396 110.673 59.5286 111.006 59.7266 111.412C59.9297 111.818 60.0312 112.266 60.0312 112.756C60.0312 113.464 59.875 114.063 59.5625 114.553C59.2552 115.037 58.8203 115.407 58.2578 115.662C57.6953 115.912 57.0339 116.037 56.2734 116.037ZM67.0234 114.592V110.24C67.0234 109.907 66.9557 109.618 66.8203 109.373C66.6901 109.123 66.4922 108.93 66.2266 108.795C65.9609 108.66 65.6328 108.592 65.2422 108.592C64.8776 108.592 64.5573 108.654 64.2812 108.779C64.0104 108.904 63.7969 109.068 63.6406 109.271C63.4896 109.475 63.4141 109.693 63.4141 109.928H61.9688C61.9688 109.626 62.0469 109.326 62.2031 109.029C62.3594 108.732 62.5833 108.464 62.875 108.225C63.1719 107.98 63.526 107.787 63.9375 107.646C64.3542 107.501 64.8177 107.428 65.3281 107.428C65.9427 107.428 66.4844 107.532 66.9531 107.74C67.4271 107.949 67.7969 108.264 68.0625 108.686C68.3333 109.102 68.4688 109.626 68.4688 110.256V114.193C68.4688 114.475 68.4922 114.774 68.5391 115.092C68.5911 115.41 68.6667 115.683 68.7656 115.912V116.037H67.2578C67.1849 115.87 67.1276 115.649 67.0859 115.373C67.0443 115.092 67.0234 114.831 67.0234 114.592ZM67.2734 110.912L67.2891 111.928H65.8281C65.4167 111.928 65.0495 111.962 64.7266 112.029C64.4036 112.092 64.1328 112.188 63.9141 112.318C63.6953 112.449 63.5286 112.613 63.4141 112.811C63.2995 113.003 63.2422 113.23 63.2422 113.49C63.2422 113.756 63.3021 113.998 63.4219 114.217C63.5417 114.436 63.7214 114.61 63.9609 114.74C64.2057 114.865 64.5052 114.928 64.8594 114.928C65.3021 114.928 65.6927 114.834 66.0312 114.646C66.3698 114.459 66.638 114.23 66.8359 113.959C67.0391 113.688 67.1484 113.425 67.1641 113.17L67.7812 113.865C67.7448 114.084 67.6458 114.326 67.4844 114.592C67.3229 114.857 67.1068 115.113 66.8359 115.357C66.5703 115.597 66.2526 115.798 65.8828 115.959C65.5182 116.115 65.1068 116.193 64.6484 116.193C64.0755 116.193 63.5729 116.081 63.1406 115.857C62.7135 115.633 62.3802 115.334 62.1406 114.959C61.9062 114.579 61.7891 114.154 61.7891 113.686C61.7891 113.232 61.8776 112.834 62.0547 112.49C62.2318 112.141 62.487 111.852 62.8203 111.623C63.1536 111.389 63.5547 111.212 64.0234 111.092C64.4922 110.972 65.0156 110.912 65.5938 110.912H67.2734ZM72.1875 109.389V116.037H70.7422V107.584H72.1094L72.1875 109.389ZM71.8438 111.49L71.2422 111.467C71.2474 110.889 71.3333 110.355 71.5 109.865C71.6667 109.37 71.901 108.941 72.2031 108.576C72.5052 108.212 72.8646 107.93 73.2812 107.732C73.7031 107.529 74.1693 107.428 74.6797 107.428C75.0964 107.428 75.4714 107.485 75.8047 107.6C76.138 107.709 76.4219 107.886 76.6562 108.131C76.8958 108.376 77.0781 108.693 77.2031 109.084C77.3281 109.469 77.3906 109.941 77.3906 110.498V116.037H75.9375V110.482C75.9375 110.04 75.8724 109.686 75.7422 109.42C75.612 109.149 75.4219 108.954 75.1719 108.834C74.9219 108.709 74.6146 108.646 74.25 108.646C73.8906 108.646 73.5625 108.722 73.2656 108.873C72.974 109.024 72.7214 109.232 72.5078 109.498C72.2995 109.764 72.1354 110.068 72.0156 110.412C71.901 110.751 71.8438 111.11 71.8438 111.49ZM81.0391 104.037V116.037H79.5859V104.037H81.0391ZM86.2031 107.584L82.5156 111.529L80.4531 113.67L80.3359 112.131L81.8125 110.365L84.4375 107.584H86.2031ZM84.8828 116.037L81.8672 112.006L82.6172 110.717L86.5859 116.037H84.8828Z" fill="#6E6E6E"/>
<defs>
<clipPath id="clip0_249_5201">
<rect width="40" height="34.2857" fill="white" transform="translate(27 29.0371)"/>
</clipPath>
</defs>
</svg>
