<svg width="93" height="121" viewBox="0 0 93 121" fill="none" xmlns="http://www.w3.org/2000/svg">
<g opacity="0.2">
<rect y="0.0371094" width="93" height="93" rx="46.5" fill="white"/>
<rect x="0.93" y="0.967109" width="91.14" height="91.14" rx="45.57" stroke="#424242" stroke-opacity="0.3" stroke-width="1.86"/>
</g>
<g clip-path="url(#clip0_254_5559)">
<path d="M46.9383 27.5786C36.2255 27.5786 27.541 36.2892 27.541 47.0339C27.541 57.1072 35.1739 65.392 44.9533 66.3881V52.2553C42.8514 51.4527 41.354 49.4158 41.354 47.0339C41.354 43.9518 43.8584 41.4443 46.9383 41.4443C50.0168 41.4443 52.5241 43.9518 52.5241 47.0339C52.5241 49.4158 51.0238 51.4527 48.9219 52.2553V66.3881C58.7028 65.392 66.3356 57.1072 66.3356 47.0339C66.3356 36.2892 57.6511 27.5786 46.9383 27.5786Z" fill="#00B5EF"/>
</g>
<path d="M42.3828 113.162C42.3828 112.896 42.3411 112.662 42.2578 112.459C42.1797 112.251 42.0391 112.063 41.8359 111.896C41.638 111.73 41.362 111.571 41.0078 111.42C40.6589 111.269 40.2161 111.115 39.6797 110.959C39.1172 110.792 38.6094 110.607 38.1562 110.404C37.7031 110.196 37.3151 109.959 36.9922 109.693C36.6693 109.428 36.4219 109.123 36.25 108.779C36.0781 108.436 35.9922 108.042 35.9922 107.6C35.9922 107.157 36.0833 106.748 36.2656 106.373C36.4479 105.998 36.7083 105.673 37.0469 105.396C37.3906 105.115 37.7995 104.896 38.2734 104.74C38.7474 104.584 39.276 104.506 39.8594 104.506C40.7135 104.506 41.4375 104.67 42.0312 104.998C42.6302 105.321 43.0859 105.745 43.3984 106.271C43.7109 106.792 43.8672 107.35 43.8672 107.943H42.3672C42.3672 107.516 42.276 107.139 42.0938 106.811C41.9115 106.477 41.6354 106.217 41.2656 106.029C40.8958 105.837 40.4271 105.74 39.8594 105.74C39.3229 105.74 38.8802 105.821 38.5312 105.982C38.1823 106.144 37.9219 106.363 37.75 106.639C37.5833 106.915 37.5 107.23 37.5 107.584C37.5 107.824 37.5495 108.042 37.6484 108.24C37.7526 108.433 37.9115 108.613 38.125 108.779C38.3438 108.946 38.6198 109.1 38.9531 109.24C39.2917 109.381 39.6953 109.516 40.1641 109.646C40.8099 109.829 41.3672 110.032 41.8359 110.256C42.3047 110.48 42.6901 110.732 42.9922 111.014C43.2995 111.29 43.526 111.605 43.6719 111.959C43.8229 112.308 43.8984 112.704 43.8984 113.146C43.8984 113.61 43.8047 114.029 43.6172 114.404C43.4297 114.779 43.1615 115.1 42.8125 115.365C42.4635 115.631 42.0443 115.837 41.5547 115.982C41.0703 116.123 40.5286 116.193 39.9297 116.193C39.4036 116.193 38.8854 116.12 38.375 115.975C37.8698 115.829 37.4089 115.61 36.9922 115.318C36.5807 115.027 36.25 114.667 36 114.24C35.7552 113.808 35.6328 113.308 35.6328 112.74H37.1328C37.1328 113.131 37.2083 113.467 37.3594 113.748C37.5104 114.024 37.7161 114.253 37.9766 114.436C38.2422 114.618 38.5417 114.753 38.875 114.842C39.2135 114.925 39.5651 114.967 39.9297 114.967C40.4557 114.967 40.901 114.894 41.2656 114.748C41.6302 114.602 41.9062 114.394 42.0938 114.123C42.2865 113.852 42.3828 113.532 42.3828 113.162ZM49.875 110.717H46.9922L46.9766 109.506H49.5938C50.026 109.506 50.4036 109.433 50.7266 109.287C51.0495 109.141 51.2995 108.933 51.4766 108.662C51.6589 108.386 51.75 108.058 51.75 107.678C51.75 107.261 51.6693 106.923 51.5078 106.662C51.3516 106.396 51.1094 106.204 50.7812 106.084C50.4583 105.959 50.0469 105.896 49.5469 105.896H47.3281V116.037H45.8203V104.662H49.5469C50.1302 104.662 50.651 104.722 51.1094 104.842C51.5677 104.956 51.9557 105.139 52.2734 105.389C52.5964 105.633 52.8411 105.946 53.0078 106.326C53.1745 106.706 53.2578 107.162 53.2578 107.693C53.2578 108.162 53.138 108.587 52.8984 108.967C52.6589 109.342 52.3255 109.649 51.8984 109.889C51.4766 110.128 50.9818 110.282 50.4141 110.35L49.875 110.717ZM49.8047 116.037H46.3984L47.25 114.811H49.8047C50.2839 114.811 50.6901 114.727 51.0234 114.561C51.362 114.394 51.6198 114.16 51.7969 113.857C51.974 113.55 52.0625 113.188 52.0625 112.771C52.0625 112.35 51.987 111.985 51.8359 111.678C51.6849 111.37 51.4479 111.133 51.125 110.967C50.8021 110.8 50.3854 110.717 49.875 110.717H47.7266L47.7422 109.506H50.6797L51 109.943C51.5469 109.99 52.0104 110.146 52.3906 110.412C52.7708 110.673 53.0599 111.006 53.2578 111.412C53.4609 111.818 53.5625 112.266 53.5625 112.756C53.5625 113.464 53.4062 114.063 53.0938 114.553C52.7865 115.037 52.3516 115.407 51.7891 115.662C51.2266 115.912 50.5651 116.037 49.8047 116.037ZM57.4062 104.662V116.037H55.8984V104.662H57.4062Z" fill="#6E6E6E"/>
<defs>
<clipPath id="clip0_254_5559">
<rect width="40" height="40" fill="white" transform="translate(27 27.0371)"/>
</clipPath>
</defs>
</svg>
