<svg width="93" height="121" viewBox="0 0 93 121" fill="none" xmlns="http://www.w3.org/2000/svg">
<g opacity="0.2">
<rect y="0.0371094" width="93" height="93" rx="46.5" fill="white"/>
<rect x="0.93" y="0.967109" width="91.14" height="91.14" rx="45.57" stroke="#424242" stroke-opacity="0.3" stroke-width="1.86"/>
</g>
<g clip-path="url(#clip0_254_5584)">
<path d="M50.1473 42.0905C49.5571 44.116 49.7315 43.3598 48.8597 46.6682C48.0818 49.8145 47.2636 52.9338 46.6466 55.0133C46.4455 55.4049 46.2309 55.81 45.9224 56.2016C45.5602 56.6742 45.131 57.1604 44.6616 57.579C42.006 59.9151 38.0359 61.2924 34.5889 60.7523C34.3072 60.7253 33.9719 60.6713 33.583 60.5497C31.4236 60.0366 30.0018 58.9698 29.1837 57.633C28.3119 56.2016 28.0973 54.3111 28.4058 52.2856C28.4326 52.002 28.5131 51.6375 28.6338 51.2188C29.9482 45.8715 31.2894 40.5646 32.6039 35.2443C33.1403 32.5436 27.4803 31.8414 26.2732 35.3523L22.6518 49.774C22.5714 50.2196 22.4641 50.7867 22.3702 51.3674C21.8337 54.7973 22.3434 58.0651 23.9126 60.7658C25.5623 63.5475 28.2716 65.627 32.1612 66.5588C32.577 66.6668 33.0867 66.7613 33.6768 66.8423C38.854 67.6255 44.8092 65.654 48.6987 62.1972C49.4767 61.495 50.2144 60.7388 50.8179 59.9151C51.4349 59.0643 51.958 58.1731 52.3872 57.2144V57.1874L52.4945 56.8768C53.1114 54.8513 53.9564 51.5294 54.8148 48.1806C55.6196 45.0073 55.928 43.9135 56.545 41.8204C57.1486 38.9982 51.6629 37.7964 50.1473 42.0905Z" fill="#ED1D24"/>
<path d="M40.5629 51.9094C41.1799 49.9109 41.0055 50.6671 41.8505 47.3318C42.6553 44.1989 43.46 41.0526 44.0502 39.0001C44.2514 38.6085 44.5062 38.1899 44.8013 37.8253C45.1634 37.3122 45.5792 36.8666 46.062 36.448C48.7177 34.0849 52.728 32.7345 56.1348 33.2476C56.4164 33.3017 56.7517 33.3557 57.1407 33.4502C59.3001 33.9903 60.7486 35.0301 61.5668 36.4075C62.3984 37.8388 62.6666 39.7023 62.3447 41.7413C62.291 42.0249 62.2374 42.3625 62.1167 42.8081C60.7218 48.4255 59.3135 54.0295 57.9454 59.6469C57.5833 62.9958 63.4579 63.3333 64.2895 59.5659L68.0852 44.253C68.1925 43.7803 68.3132 43.2402 68.3937 42.619C68.89 39.2162 68.4205 35.9483 66.8245 33.2612C65.2015 30.4794 62.4922 28.3999 58.6026 27.4682C58.1869 27.3871 57.6772 27.2656 57.0602 27.1846C51.883 26.4014 45.9279 28.3999 42.0383 31.8298C41.2336 32.532 40.5227 33.2882 39.9057 34.1119C39.2888 34.9221 38.7523 35.8538 38.3767 36.8126L38.2292 37.1501C37.639 39.1487 36.7806 42.4975 35.9357 45.8059C35.0907 49.0062 34.8224 50.1135 34.2055 52.1525C34.1518 56.0145 39.8789 55.6769 40.5629 51.9094Z" fill="#006CB7"/>
</g>
<path d="M13.8281 104.662H15.3281V112.357C15.3281 113.212 15.138 113.923 14.7578 114.49C14.3776 115.058 13.8724 115.485 13.2422 115.771C12.6172 116.053 11.9375 116.193 11.2031 116.193C10.4323 116.193 9.73438 116.053 9.10938 115.771C8.48958 115.485 7.9974 115.058 7.63281 114.49C7.27344 113.923 7.09375 113.212 7.09375 112.357V104.662H8.58594V112.357C8.58594 112.951 8.69531 113.441 8.91406 113.826C9.13281 114.212 9.4375 114.498 9.82812 114.686C10.224 114.873 10.6823 114.967 11.2031 114.967C11.7292 114.967 12.1875 114.873 12.5781 114.686C12.974 114.498 13.2812 114.212 13.5 113.826C13.7188 113.441 13.8281 112.951 13.8281 112.357V104.662ZM18.9219 109.389V116.037H17.4766V107.584H18.8438L18.9219 109.389ZM18.5781 111.49L17.9766 111.467C17.9818 110.889 18.0677 110.355 18.2344 109.865C18.401 109.37 18.6354 108.941 18.9375 108.576C19.2396 108.212 19.599 107.93 20.0156 107.732C20.4375 107.529 20.9036 107.428 21.4141 107.428C21.8307 107.428 22.2057 107.485 22.5391 107.6C22.8724 107.709 23.1562 107.886 23.3906 108.131C23.6302 108.376 23.8125 108.693 23.9375 109.084C24.0625 109.469 24.125 109.941 24.125 110.498V116.037H22.6719V110.482C22.6719 110.04 22.6068 109.686 22.4766 109.42C22.3464 109.149 22.1562 108.954 21.9062 108.834C21.6562 108.709 21.349 108.646 20.9844 108.646C20.625 108.646 20.2969 108.722 20 108.873C19.7083 109.024 19.4557 109.232 19.2422 109.498C19.0339 109.764 18.8698 110.068 18.75 110.412C18.6354 110.751 18.5781 111.11 18.5781 111.49ZM27.8906 107.584V116.037H26.4375V107.584H27.8906ZM26.3281 105.342C26.3281 105.107 26.3984 104.91 26.5391 104.748C26.6849 104.587 26.8984 104.506 27.1797 104.506C27.4557 104.506 27.6667 104.587 27.8125 104.748C27.9635 104.91 28.0391 105.107 28.0391 105.342C28.0391 105.566 27.9635 105.758 27.8125 105.92C27.6667 106.076 27.4557 106.154 27.1797 106.154C26.8984 106.154 26.6849 106.076 26.5391 105.92C26.3984 105.758 26.3281 105.566 26.3281 105.342ZM29.8281 111.904V111.725C29.8281 111.115 29.9167 110.55 30.0938 110.029C30.2708 109.503 30.526 109.048 30.8594 108.662C31.1927 108.271 31.5964 107.969 32.0703 107.756C32.5443 107.537 33.0755 107.428 33.6641 107.428C34.2578 107.428 34.7917 107.537 35.2656 107.756C35.7448 107.969 36.151 108.271 36.4844 108.662C36.8229 109.048 37.0807 109.503 37.2578 110.029C37.4349 110.55 37.5234 111.115 37.5234 111.725V111.904C37.5234 112.514 37.4349 113.079 37.2578 113.6C37.0807 114.12 36.8229 114.576 36.4844 114.967C36.151 115.352 35.7474 115.654 35.2734 115.873C34.8047 116.087 34.2734 116.193 33.6797 116.193C33.0859 116.193 32.5521 116.087 32.0781 115.873C31.6042 115.654 31.1979 115.352 30.8594 114.967C30.526 114.576 30.2708 114.12 30.0938 113.6C29.9167 113.079 29.8281 112.514 29.8281 111.904ZM31.2734 111.725V111.904C31.2734 112.326 31.3229 112.725 31.4219 113.1C31.5208 113.469 31.6693 113.798 31.8672 114.084C32.0703 114.37 32.3229 114.597 32.625 114.764C32.9271 114.925 33.2786 115.006 33.6797 115.006C34.0755 115.006 34.4219 114.925 34.7188 114.764C35.0208 114.597 35.2708 114.37 35.4688 114.084C35.6667 113.798 35.8151 113.469 35.9141 113.1C36.0182 112.725 36.0703 112.326 36.0703 111.904V111.725C36.0703 111.308 36.0182 110.915 35.9141 110.545C35.8151 110.17 35.6641 109.839 35.4609 109.553C35.263 109.261 35.013 109.032 34.7109 108.865C34.4141 108.699 34.0651 108.615 33.6641 108.615C33.2682 108.615 32.9193 108.699 32.6172 108.865C32.3203 109.032 32.0703 109.261 31.8672 109.553C31.6693 109.839 31.5208 110.17 31.4219 110.545C31.3229 110.915 31.2734 111.308 31.2734 111.725ZM40.7812 109.389V116.037H39.3359V107.584H40.7031L40.7812 109.389ZM40.4375 111.49L39.8359 111.467C39.8411 110.889 39.9271 110.355 40.0938 109.865C40.2604 109.37 40.4948 108.941 40.7969 108.576C41.099 108.212 41.4583 107.93 41.875 107.732C42.2969 107.529 42.763 107.428 43.2734 107.428C43.6901 107.428 44.0651 107.485 44.3984 107.6C44.7318 107.709 45.0156 107.886 45.25 108.131C45.4896 108.376 45.6719 108.693 45.7969 109.084C45.9219 109.469 45.9844 109.941 45.9844 110.498V116.037H44.5312V110.482C44.5312 110.04 44.4661 109.686 44.3359 109.42C44.2057 109.149 44.0156 108.954 43.7656 108.834C43.5156 108.709 43.2083 108.646 42.8438 108.646C42.4844 108.646 42.1562 108.722 41.8594 108.873C41.5677 109.024 41.3151 109.232 41.1016 109.498C40.8932 109.764 40.7292 110.068 40.6094 110.412C40.4948 110.751 40.4375 111.11 40.4375 111.49ZM56.4219 110.717H53.5391L53.5234 109.506H56.1406C56.5729 109.506 56.9505 109.433 57.2734 109.287C57.5964 109.141 57.8464 108.933 58.0234 108.662C58.2057 108.386 58.2969 108.058 58.2969 107.678C58.2969 107.261 58.2161 106.923 58.0547 106.662C57.8984 106.396 57.6562 106.204 57.3281 106.084C57.0052 105.959 56.5938 105.896 56.0938 105.896H53.875V116.037H52.3672V104.662H56.0938C56.6771 104.662 57.1979 104.722 57.6562 104.842C58.1146 104.956 58.5026 105.139 58.8203 105.389C59.1432 105.633 59.388 105.946 59.5547 106.326C59.7214 106.706 59.8047 107.162 59.8047 107.693C59.8047 108.162 59.6849 108.587 59.4453 108.967C59.2057 109.342 58.8724 109.649 58.4453 109.889C58.0234 110.128 57.5286 110.282 56.9609 110.35L56.4219 110.717ZM56.3516 116.037H52.9453L53.7969 114.811H56.3516C56.8307 114.811 57.237 114.727 57.5703 114.561C57.9089 114.394 58.1667 114.16 58.3438 113.857C58.5208 113.55 58.6094 113.188 58.6094 112.771C58.6094 112.35 58.5339 111.985 58.3828 111.678C58.2318 111.37 57.9948 111.133 57.6719 110.967C57.349 110.8 56.9323 110.717 56.4219 110.717H54.2734L54.2891 109.506H57.2266L57.5469 109.943C58.0938 109.99 58.5573 110.146 58.9375 110.412C59.3177 110.673 59.6068 111.006 59.8047 111.412C60.0078 111.818 60.1094 112.266 60.1094 112.756C60.1094 113.464 59.9531 114.063 59.6406 114.553C59.3333 115.037 58.8984 115.407 58.3359 115.662C57.7734 115.912 57.112 116.037 56.3516 116.037ZM67.1016 114.592V110.24C67.1016 109.907 67.0339 109.618 66.8984 109.373C66.7682 109.123 66.5703 108.93 66.3047 108.795C66.0391 108.66 65.7109 108.592 65.3203 108.592C64.9557 108.592 64.6354 108.654 64.3594 108.779C64.0885 108.904 63.875 109.068 63.7188 109.271C63.5677 109.475 63.4922 109.693 63.4922 109.928H62.0469C62.0469 109.626 62.125 109.326 62.2812 109.029C62.4375 108.732 62.6615 108.464 62.9531 108.225C63.25 107.98 63.6042 107.787 64.0156 107.646C64.4323 107.501 64.8958 107.428 65.4062 107.428C66.0208 107.428 66.5625 107.532 67.0312 107.74C67.5052 107.949 67.875 108.264 68.1406 108.686C68.4115 109.102 68.5469 109.626 68.5469 110.256V114.193C68.5469 114.475 68.5703 114.774 68.6172 115.092C68.6693 115.41 68.7448 115.683 68.8438 115.912V116.037H67.3359C67.263 115.87 67.2057 115.649 67.1641 115.373C67.1224 115.092 67.1016 114.831 67.1016 114.592ZM67.3516 110.912L67.3672 111.928H65.9062C65.4948 111.928 65.1276 111.962 64.8047 112.029C64.4818 112.092 64.2109 112.188 63.9922 112.318C63.7734 112.449 63.6068 112.613 63.4922 112.811C63.3776 113.003 63.3203 113.23 63.3203 113.49C63.3203 113.756 63.3802 113.998 63.5 114.217C63.6198 114.436 63.7995 114.61 64.0391 114.74C64.2839 114.865 64.5833 114.928 64.9375 114.928C65.3802 114.928 65.7708 114.834 66.1094 114.646C66.4479 114.459 66.7161 114.23 66.9141 113.959C67.1172 113.688 67.2266 113.425 67.2422 113.17L67.8594 113.865C67.8229 114.084 67.724 114.326 67.5625 114.592C67.401 114.857 67.1849 115.113 66.9141 115.357C66.6484 115.597 66.3307 115.798 65.9609 115.959C65.5964 116.115 65.1849 116.193 64.7266 116.193C64.1536 116.193 63.651 116.081 63.2188 115.857C62.7917 115.633 62.4583 115.334 62.2188 114.959C61.9844 114.579 61.8672 114.154 61.8672 113.686C61.8672 113.232 61.9557 112.834 62.1328 112.49C62.3099 112.141 62.5651 111.852 62.8984 111.623C63.2318 111.389 63.6328 111.212 64.1016 111.092C64.5703 110.972 65.0938 110.912 65.6719 110.912H67.3516ZM72.2656 109.389V116.037H70.8203V107.584H72.1875L72.2656 109.389ZM71.9219 111.49L71.3203 111.467C71.3255 110.889 71.4115 110.355 71.5781 109.865C71.7448 109.37 71.9792 108.941 72.2812 108.576C72.5833 108.212 72.9427 107.93 73.3594 107.732C73.7812 107.529 74.2474 107.428 74.7578 107.428C75.1745 107.428 75.5495 107.485 75.8828 107.6C76.2161 107.709 76.5 107.886 76.7344 108.131C76.974 108.376 77.1562 108.693 77.2812 109.084C77.4062 109.469 77.4688 109.941 77.4688 110.498V116.037H76.0156V110.482C76.0156 110.04 75.9505 109.686 75.8203 109.42C75.6901 109.149 75.5 108.954 75.25 108.834C75 108.709 74.6927 108.646 74.3281 108.646C73.9688 108.646 73.6406 108.722 73.3438 108.873C73.0521 109.024 72.7995 109.232 72.5859 109.498C72.3776 109.764 72.2135 110.068 72.0938 110.412C71.9792 110.751 71.9219 111.11 71.9219 111.49ZM81.1172 104.037V116.037H79.6641V104.037H81.1172ZM86.2812 107.584L82.5938 111.529L80.5312 113.67L80.4141 112.131L81.8906 110.365L84.5156 107.584H86.2812ZM84.9609 116.037L81.9453 112.006L82.6953 110.717L86.6641 116.037H84.9609Z" fill="#6E6E6E"/>
<defs>
<clipPath id="clip0_254_5584">
<rect width="52.6316" height="40" fill="white" transform="translate(20 27.0371)"/>
</clipPath>
</defs>
</svg>
